<?xml version="1.0" encoding="utf-8" standalone="no"?>
<!DOCTYPE svg PUBLIC "-//W3C//DTD SVG 1.1//EN"
  "http://www.w3.org/Graphics/SVG/1.1/DTD/svg11.dtd">
<svg xmlns:xlink="http://www.w3.org/1999/xlink" width="460.8pt" height="345.6pt" viewBox="0 0 460.8 345.6" xmlns="http://www.w3.org/2000/svg" version="1.1">
 <metadata>
  <rdf:RDF xmlns:dc="http://purl.org/dc/elements/1.1/" xmlns:cc="http://creativecommons.org/ns#" xmlns:rdf="http://www.w3.org/1999/02/22-rdf-syntax-ns#">
   <cc:Work>
    <dc:type rdf:resource="http://purl.org/dc/dcmitype/StillImage"/>
    <dc:date>2024-04-18T16:47:35.649308</dc:date>
    <dc:format>image/svg+xml</dc:format>
    <dc:creator>
     <cc:Agent>
      <dc:title>Matplotlib v3.8.2, https://matplotlib.org/</dc:title>
     </cc:Agent>
    </dc:creator>
   </cc:Work>
  </rdf:RDF>
 </metadata>
 <defs>
  <style type="text/css">*{stroke-linejoin: round; stroke-linecap: butt}</style>
 </defs>
 <g id="figure_1">
  <g id="patch_1">
   <path d="M 0 345.6 
L 460.8 345.6 
L 460.8 0 
L 0 0 
z
" style="fill: #ffffff"/>
  </g>
  <g id="axes_1">
   <g id="patch_2">
    <path d="M 57.6 307.584 
L 414.72 307.584 
L 414.72 41.472 
L 57.6 41.472 
z
" style="fill: #ffffff"/>
   </g>
   <g id="matplotlib.axis_1">
    <g id="xtick_1">
     <g id="line2d_1">
      <defs>
       <path id="m68bd29123c" d="M 0 0 
L 0 3.5 
" style="stroke: #000000; stroke-width: 0.8"/>
      </defs>
      <g>
       <use xlink:href="#m68bd29123c" x="73.832727" y="307.584" style="stroke: #000000; stroke-width: 0.8"/>
      </g>
     </g>
     <g id="text_1">
      <!-- 45 -->
      <g transform="translate(67.470227 322.182437) scale(0.1 -0.1)">
       <defs>
        <path id="DejaVuSans-34" d="M 2419 4116 
L 825 1625 
L 2419 1625 
L 2419 4116 
z
M 2253 4666 
L 3047 4666 
L 3047 1625 
L 3713 1625 
L 3713 1100 
L 3047 1100 
L 3047 0 
L 2419 0 
L 2419 1100 
L 313 1100 
L 313 1709 
L 2253 4666 
z
" transform="scale(0.015625)"/>
        <path id="DejaVuSans-35" d="M 691 4666 
L 3169 4666 
L 3169 4134 
L 1269 4134 
L 1269 2991 
Q 1406 3038 1543 3061 
Q 1681 3084 1819 3084 
Q 2600 3084 3056 2656 
Q 3513 2228 3513 1497 
Q 3513 744 3044 326 
Q 2575 -91 1722 -91 
Q 1428 -91 1123 -41 
Q 819 9 494 109 
L 494 744 
Q 775 591 1075 516 
Q 1375 441 1709 441 
Q 2250 441 2565 725 
Q 2881 1009 2881 1497 
Q 2881 1984 2565 2268 
Q 2250 2553 1709 2553 
Q 1456 2553 1204 2497 
Q 953 2441 691 2322 
L 691 4666 
z
" transform="scale(0.015625)"/>
       </defs>
       <use xlink:href="#DejaVuSans-34"/>
       <use xlink:href="#DejaVuSans-35" x="63.623047"/>
      </g>
     </g>
    </g>
    <g id="xtick_2">
     <g id="line2d_2">
      <g>
       <use xlink:href="#m68bd29123c" x="138.763636" y="307.584" style="stroke: #000000; stroke-width: 0.8"/>
      </g>
     </g>
     <g id="text_2">
      <!-- 46 -->
      <g transform="translate(132.401136 322.182437) scale(0.1 -0.1)">
       <defs>
        <path id="DejaVuSans-36" d="M 2113 2584 
Q 1688 2584 1439 2293 
Q 1191 2003 1191 1497 
Q 1191 994 1439 701 
Q 1688 409 2113 409 
Q 2538 409 2786 701 
Q 3034 994 3034 1497 
Q 3034 2003 2786 2293 
Q 2538 2584 2113 2584 
z
M 3366 4563 
L 3366 3988 
Q 3128 4100 2886 4159 
Q 2644 4219 2406 4219 
Q 1781 4219 1451 3797 
Q 1122 3375 1075 2522 
Q 1259 2794 1537 2939 
Q 1816 3084 2150 3084 
Q 2853 3084 3261 2657 
Q 3669 2231 3669 1497 
Q 3669 778 3244 343 
Q 2819 -91 2113 -91 
Q 1303 -91 875 529 
Q 447 1150 447 2328 
Q 447 3434 972 4092 
Q 1497 4750 2381 4750 
Q 2619 4750 2861 4703 
Q 3103 4656 3366 4563 
z
" transform="scale(0.015625)"/>
       </defs>
       <use xlink:href="#DejaVuSans-34"/>
       <use xlink:href="#DejaVuSans-36" x="63.623047"/>
      </g>
     </g>
    </g>
    <g id="xtick_3">
     <g id="line2d_3">
      <g>
       <use xlink:href="#m68bd29123c" x="203.694545" y="307.584" style="stroke: #000000; stroke-width: 0.8"/>
      </g>
     </g>
     <g id="text_3">
      <!-- 47 -->
      <g transform="translate(197.332045 322.182437) scale(0.1 -0.1)">
       <defs>
        <path id="DejaVuSans-37" d="M 525 4666 
L 3525 4666 
L 3525 4397 
L 1831 0 
L 1172 0 
L 2766 4134 
L 525 4134 
L 525 4666 
z
" transform="scale(0.015625)"/>
       </defs>
       <use xlink:href="#DejaVuSans-34"/>
       <use xlink:href="#DejaVuSans-37" x="63.623047"/>
      </g>
     </g>
    </g>
    <g id="xtick_4">
     <g id="line2d_4">
      <g>
       <use xlink:href="#m68bd29123c" x="268.625455" y="307.584" style="stroke: #000000; stroke-width: 0.8"/>
      </g>
     </g>
     <g id="text_4">
      <!-- 48 -->
      <g transform="translate(262.262955 322.182437) scale(0.1 -0.1)">
       <defs>
        <path id="DejaVuSans-38" d="M 2034 2216 
Q 1584 2216 1326 1975 
Q 1069 1734 1069 1313 
Q 1069 891 1326 650 
Q 1584 409 2034 409 
Q 2484 409 2743 651 
Q 3003 894 3003 1313 
Q 3003 1734 2745 1975 
Q 2488 2216 2034 2216 
z
M 1403 2484 
Q 997 2584 770 2862 
Q 544 3141 544 3541 
Q 544 4100 942 4425 
Q 1341 4750 2034 4750 
Q 2731 4750 3128 4425 
Q 3525 4100 3525 3541 
Q 3525 3141 3298 2862 
Q 3072 2584 2669 2484 
Q 3125 2378 3379 2068 
Q 3634 1759 3634 1313 
Q 3634 634 3220 271 
Q 2806 -91 2034 -91 
Q 1263 -91 848 271 
Q 434 634 434 1313 
Q 434 1759 690 2068 
Q 947 2378 1403 2484 
z
M 1172 3481 
Q 1172 3119 1398 2916 
Q 1625 2713 2034 2713 
Q 2441 2713 2670 2916 
Q 2900 3119 2900 3481 
Q 2900 3844 2670 4047 
Q 2441 4250 2034 4250 
Q 1625 4250 1398 4047 
Q 1172 3844 1172 3481 
z
" transform="scale(0.015625)"/>
       </defs>
       <use xlink:href="#DejaVuSans-34"/>
       <use xlink:href="#DejaVuSans-38" x="63.623047"/>
      </g>
     </g>
    </g>
    <g id="xtick_5">
     <g id="line2d_5">
      <g>
       <use xlink:href="#m68bd29123c" x="333.556364" y="307.584" style="stroke: #000000; stroke-width: 0.8"/>
      </g>
     </g>
     <g id="text_5">
      <!-- 49 -->
      <g transform="translate(327.193864 322.182437) scale(0.1 -0.1)">
       <defs>
        <path id="DejaVuSans-39" d="M 703 97 
L 703 672 
Q 941 559 1184 500 
Q 1428 441 1663 441 
Q 2288 441 2617 861 
Q 2947 1281 2994 2138 
Q 2813 1869 2534 1725 
Q 2256 1581 1919 1581 
Q 1219 1581 811 2004 
Q 403 2428 403 3163 
Q 403 3881 828 4315 
Q 1253 4750 1959 4750 
Q 2769 4750 3195 4129 
Q 3622 3509 3622 2328 
Q 3622 1225 3098 567 
Q 2575 -91 1691 -91 
Q 1453 -91 1209 -44 
Q 966 3 703 97 
z
M 1959 2075 
Q 2384 2075 2632 2365 
Q 2881 2656 2881 3163 
Q 2881 3666 2632 3958 
Q 2384 4250 1959 4250 
Q 1534 4250 1286 3958 
Q 1038 3666 1038 3163 
Q 1038 2656 1286 2365 
Q 1534 2075 1959 2075 
z
" transform="scale(0.015625)"/>
       </defs>
       <use xlink:href="#DejaVuSans-34"/>
       <use xlink:href="#DejaVuSans-39" x="63.623047"/>
      </g>
     </g>
    </g>
    <g id="xtick_6">
     <g id="line2d_6">
      <g>
       <use xlink:href="#m68bd29123c" x="398.487273" y="307.584" style="stroke: #000000; stroke-width: 0.8"/>
      </g>
     </g>
     <g id="text_6">
      <!-- 50 -->
      <g transform="translate(392.124773 322.182437) scale(0.1 -0.1)">
       <defs>
        <path id="DejaVuSans-30" d="M 2034 4250 
Q 1547 4250 1301 3770 
Q 1056 3291 1056 2328 
Q 1056 1369 1301 889 
Q 1547 409 2034 409 
Q 2525 409 2770 889 
Q 3016 1369 3016 2328 
Q 3016 3291 2770 3770 
Q 2525 4250 2034 4250 
z
M 2034 4750 
Q 2819 4750 3233 4129 
Q 3647 3509 3647 2328 
Q 3647 1150 3233 529 
Q 2819 -91 2034 -91 
Q 1250 -91 836 529 
Q 422 1150 422 2328 
Q 422 3509 836 4129 
Q 1250 4750 2034 4750 
z
" transform="scale(0.015625)"/>
       </defs>
       <use xlink:href="#DejaVuSans-35"/>
       <use xlink:href="#DejaVuSans-30" x="63.623047"/>
      </g>
     </g>
    </g>
    <g id="text_7">
     <!-- Normalized groove depth $d/\lambda$ -->
     <g transform="translate(163.16 335.862125) scale(0.1 -0.1)">
      <defs>
       <path id="DejaVuSans-4e" d="M 628 4666 
L 1478 4666 
L 3547 763 
L 3547 4666 
L 4159 4666 
L 4159 0 
L 3309 0 
L 1241 3903 
L 1241 0 
L 628 0 
L 628 4666 
z
" transform="scale(0.015625)"/>
       <path id="DejaVuSans-6f" d="M 1959 3097 
Q 1497 3097 1228 2736 
Q 959 2375 959 1747 
Q 959 1119 1226 758 
Q 1494 397 1959 397 
Q 2419 397 2687 759 
Q 2956 1122 2956 1747 
Q 2956 2369 2687 2733 
Q 2419 3097 1959 3097 
z
M 1959 3584 
Q 2709 3584 3137 3096 
Q 3566 2609 3566 1747 
Q 3566 888 3137 398 
Q 2709 -91 1959 -91 
Q 1206 -91 779 398 
Q 353 888 353 1747 
Q 353 2609 779 3096 
Q 1206 3584 1959 3584 
z
" transform="scale(0.015625)"/>
       <path id="DejaVuSans-72" d="M 2631 2963 
Q 2534 3019 2420 3045 
Q 2306 3072 2169 3072 
Q 1681 3072 1420 2755 
Q 1159 2438 1159 1844 
L 1159 0 
L 581 0 
L 581 3500 
L 1159 3500 
L 1159 2956 
Q 1341 3275 1631 3429 
Q 1922 3584 2338 3584 
Q 2397 3584 2469 3576 
Q 2541 3569 2628 3553 
L 2631 2963 
z
" transform="scale(0.015625)"/>
       <path id="DejaVuSans-6d" d="M 3328 2828 
Q 3544 3216 3844 3400 
Q 4144 3584 4550 3584 
Q 5097 3584 5394 3201 
Q 5691 2819 5691 2113 
L 5691 0 
L 5113 0 
L 5113 2094 
Q 5113 2597 4934 2840 
Q 4756 3084 4391 3084 
Q 3944 3084 3684 2787 
Q 3425 2491 3425 1978 
L 3425 0 
L 2847 0 
L 2847 2094 
Q 2847 2600 2669 2842 
Q 2491 3084 2119 3084 
Q 1678 3084 1418 2786 
Q 1159 2488 1159 1978 
L 1159 0 
L 581 0 
L 581 3500 
L 1159 3500 
L 1159 2956 
Q 1356 3278 1631 3431 
Q 1906 3584 2284 3584 
Q 2666 3584 2933 3390 
Q 3200 3197 3328 2828 
z
" transform="scale(0.015625)"/>
       <path id="DejaVuSans-61" d="M 2194 1759 
Q 1497 1759 1228 1600 
Q 959 1441 959 1056 
Q 959 750 1161 570 
Q 1363 391 1709 391 
Q 2188 391 2477 730 
Q 2766 1069 2766 1631 
L 2766 1759 
L 2194 1759 
z
M 3341 1997 
L 3341 0 
L 2766 0 
L 2766 531 
Q 2569 213 2275 61 
Q 1981 -91 1556 -91 
Q 1019 -91 701 211 
Q 384 513 384 1019 
Q 384 1609 779 1909 
Q 1175 2209 1959 2209 
L 2766 2209 
L 2766 2266 
Q 2766 2663 2505 2880 
Q 2244 3097 1772 3097 
Q 1472 3097 1187 3025 
Q 903 2953 641 2809 
L 641 3341 
Q 956 3463 1253 3523 
Q 1550 3584 1831 3584 
Q 2591 3584 2966 3190 
Q 3341 2797 3341 1997 
z
" transform="scale(0.015625)"/>
       <path id="DejaVuSans-6c" d="M 603 4863 
L 1178 4863 
L 1178 0 
L 603 0 
L 603 4863 
z
" transform="scale(0.015625)"/>
       <path id="DejaVuSans-69" d="M 603 3500 
L 1178 3500 
L 1178 0 
L 603 0 
L 603 3500 
z
M 603 4863 
L 1178 4863 
L 1178 4134 
L 603 4134 
L 603 4863 
z
" transform="scale(0.015625)"/>
       <path id="DejaVuSans-7a" d="M 353 3500 
L 3084 3500 
L 3084 2975 
L 922 459 
L 3084 459 
L 3084 0 
L 275 0 
L 275 525 
L 2438 3041 
L 353 3041 
L 353 3500 
z
" transform="scale(0.015625)"/>
       <path id="DejaVuSans-65" d="M 3597 1894 
L 3597 1613 
L 953 1613 
Q 991 1019 1311 708 
Q 1631 397 2203 397 
Q 2534 397 2845 478 
Q 3156 559 3463 722 
L 3463 178 
Q 3153 47 2828 -22 
Q 2503 -91 2169 -91 
Q 1331 -91 842 396 
Q 353 884 353 1716 
Q 353 2575 817 3079 
Q 1281 3584 2069 3584 
Q 2775 3584 3186 3129 
Q 3597 2675 3597 1894 
z
M 3022 2063 
Q 3016 2534 2758 2815 
Q 2500 3097 2075 3097 
Q 1594 3097 1305 2825 
Q 1016 2553 972 2059 
L 3022 2063 
z
" transform="scale(0.015625)"/>
       <path id="DejaVuSans-64" d="M 2906 2969 
L 2906 4863 
L 3481 4863 
L 3481 0 
L 2906 0 
L 2906 525 
Q 2725 213 2448 61 
Q 2172 -91 1784 -91 
Q 1150 -91 751 415 
Q 353 922 353 1747 
Q 353 2572 751 3078 
Q 1150 3584 1784 3584 
Q 2172 3584 2448 3432 
Q 2725 3281 2906 2969 
z
M 947 1747 
Q 947 1113 1208 752 
Q 1469 391 1925 391 
Q 2381 391 2643 752 
Q 2906 1113 2906 1747 
Q 2906 2381 2643 2742 
Q 2381 3103 1925 3103 
Q 1469 3103 1208 2742 
Q 947 2381 947 1747 
z
" transform="scale(0.015625)"/>
       <path id="DejaVuSans-20" transform="scale(0.015625)"/>
       <path id="DejaVuSans-67" d="M 2906 1791 
Q 2906 2416 2648 2759 
Q 2391 3103 1925 3103 
Q 1463 3103 1205 2759 
Q 947 2416 947 1791 
Q 947 1169 1205 825 
Q 1463 481 1925 481 
Q 2391 481 2648 825 
Q 2906 1169 2906 1791 
z
M 3481 434 
Q 3481 -459 3084 -895 
Q 2688 -1331 1869 -1331 
Q 1566 -1331 1297 -1286 
Q 1028 -1241 775 -1147 
L 775 -588 
Q 1028 -725 1275 -790 
Q 1522 -856 1778 -856 
Q 2344 -856 2625 -561 
Q 2906 -266 2906 331 
L 2906 616 
Q 2728 306 2450 153 
Q 2172 0 1784 0 
Q 1141 0 747 490 
Q 353 981 353 1791 
Q 353 2603 747 3093 
Q 1141 3584 1784 3584 
Q 2172 3584 2450 3431 
Q 2728 3278 2906 2969 
L 2906 3500 
L 3481 3500 
L 3481 434 
z
" transform="scale(0.015625)"/>
       <path id="DejaVuSans-76" d="M 191 3500 
L 800 3500 
L 1894 563 
L 2988 3500 
L 3597 3500 
L 2284 0 
L 1503 0 
L 191 3500 
z
" transform="scale(0.015625)"/>
       <path id="DejaVuSans-70" d="M 1159 525 
L 1159 -1331 
L 581 -1331 
L 581 3500 
L 1159 3500 
L 1159 2969 
Q 1341 3281 1617 3432 
Q 1894 3584 2278 3584 
Q 2916 3584 3314 3078 
Q 3713 2572 3713 1747 
Q 3713 922 3314 415 
Q 2916 -91 2278 -91 
Q 1894 -91 1617 61 
Q 1341 213 1159 525 
z
M 3116 1747 
Q 3116 2381 2855 2742 
Q 2594 3103 2138 3103 
Q 1681 3103 1420 2742 
Q 1159 2381 1159 1747 
Q 1159 1113 1420 752 
Q 1681 391 2138 391 
Q 2594 391 2855 752 
Q 3116 1113 3116 1747 
z
" transform="scale(0.015625)"/>
       <path id="DejaVuSans-74" d="M 1172 4494 
L 1172 3500 
L 2356 3500 
L 2356 3053 
L 1172 3053 
L 1172 1153 
Q 1172 725 1289 603 
Q 1406 481 1766 481 
L 2356 481 
L 2356 0 
L 1766 0 
Q 1100 0 847 248 
Q 594 497 594 1153 
L 594 3053 
L 172 3053 
L 172 3500 
L 594 3500 
L 594 4494 
L 1172 4494 
z
" transform="scale(0.015625)"/>
       <path id="DejaVuSans-68" d="M 3513 2113 
L 3513 0 
L 2938 0 
L 2938 2094 
Q 2938 2591 2744 2837 
Q 2550 3084 2163 3084 
Q 1697 3084 1428 2787 
Q 1159 2491 1159 1978 
L 1159 0 
L 581 0 
L 581 4863 
L 1159 4863 
L 1159 2956 
Q 1366 3272 1645 3428 
Q 1925 3584 2291 3584 
Q 2894 3584 3203 3211 
Q 3513 2838 3513 2113 
z
" transform="scale(0.015625)"/>
       <path id="DejaVuSans-Oblique-64" d="M 2675 525 
Q 2444 222 2128 65 
Q 1813 -91 1428 -91 
Q 903 -91 598 267 
Q 294 625 294 1247 
Q 294 1766 478 2236 
Q 663 2706 1013 3078 
Q 1244 3325 1534 3454 
Q 1825 3584 2144 3584 
Q 2481 3584 2739 3421 
Q 2997 3259 3138 2956 
L 3513 4863 
L 4091 4863 
L 3144 0 
L 2566 0 
L 2675 525 
z
M 891 1350 
Q 891 897 1095 644 
Q 1300 391 1663 391 
Q 1931 391 2161 520 
Q 2391 650 2566 903 
Q 2750 1166 2856 1509 
Q 2963 1853 2963 2188 
Q 2963 2622 2758 2865 
Q 2553 3109 2194 3109 
Q 1922 3109 1687 2981 
Q 1453 2853 1288 2613 
Q 1106 2353 998 2009 
Q 891 1666 891 1350 
z
" transform="scale(0.015625)"/>
       <path id="DejaVuSans-2f" d="M 1625 4666 
L 2156 4666 
L 531 -594 
L 0 -594 
L 1625 4666 
z
" transform="scale(0.015625)"/>
       <path id="DejaVuSans-Oblique-3bb" d="M 2350 4316 
L 3125 0 
L 2516 0 
L 2038 2588 
L 328 0 
L -281 0 
L 1903 3356 
L 1794 3975 
Q 1725 4369 1391 4369 
L 1091 4369 
L 1184 4863 
L 1550 4856 
Q 2253 4847 2350 4316 
z
" transform="scale(0.015625)"/>
      </defs>
      <use xlink:href="#DejaVuSans-4e" transform="translate(0 0.015625)"/>
      <use xlink:href="#DejaVuSans-6f" transform="translate(74.804688 0.015625)"/>
      <use xlink:href="#DejaVuSans-72" transform="translate(135.986328 0.015625)"/>
      <use xlink:href="#DejaVuSans-6d" transform="translate(177.099609 0.015625)"/>
      <use xlink:href="#DejaVuSans-61" transform="translate(274.511719 0.015625)"/>
      <use xlink:href="#DejaVuSans-6c" transform="translate(335.791016 0.015625)"/>
      <use xlink:href="#DejaVuSans-69" transform="translate(363.574219 0.015625)"/>
      <use xlink:href="#DejaVuSans-7a" transform="translate(391.357422 0.015625)"/>
      <use xlink:href="#DejaVuSans-65" transform="translate(443.847656 0.015625)"/>
      <use xlink:href="#DejaVuSans-64" transform="translate(505.371094 0.015625)"/>
      <use xlink:href="#DejaVuSans-20" transform="translate(568.847656 0.015625)"/>
      <use xlink:href="#DejaVuSans-67" transform="translate(600.634766 0.015625)"/>
      <use xlink:href="#DejaVuSans-72" transform="translate(664.111328 0.015625)"/>
      <use xlink:href="#DejaVuSans-6f" transform="translate(705.224609 0.015625)"/>
      <use xlink:href="#DejaVuSans-6f" transform="translate(766.40625 0.015625)"/>
      <use xlink:href="#DejaVuSans-76" transform="translate(827.587891 0.015625)"/>
      <use xlink:href="#DejaVuSans-65" transform="translate(886.767578 0.015625)"/>
      <use xlink:href="#DejaVuSans-20" transform="translate(948.291016 0.015625)"/>
      <use xlink:href="#DejaVuSans-64" transform="translate(980.078125 0.015625)"/>
      <use xlink:href="#DejaVuSans-65" transform="translate(1043.554688 0.015625)"/>
      <use xlink:href="#DejaVuSans-70" transform="translate(1105.078125 0.015625)"/>
      <use xlink:href="#DejaVuSans-74" transform="translate(1168.554688 0.015625)"/>
      <use xlink:href="#DejaVuSans-68" transform="translate(1207.763672 0.015625)"/>
      <use xlink:href="#DejaVuSans-20" transform="translate(1271.142578 0.015625)"/>
      <use xlink:href="#DejaVuSans-Oblique-64" transform="translate(1302.929688 0.015625)"/>
      <use xlink:href="#DejaVuSans-2f" transform="translate(1366.40625 0.015625)"/>
      <use xlink:href="#DejaVuSans-Oblique-3bb" transform="translate(1400.097656 0.015625)"/>
     </g>
    </g>
   </g>
   <g id="matplotlib.axis_2">
    <g id="ytick_1">
     <g id="line2d_7">
      <defs>
       <path id="m9140df6bca" d="M 0 0 
L -3.5 0 
" style="stroke: #000000; stroke-width: 0.8"/>
      </defs>
      <g>
       <use xlink:href="#m9140df6bca" x="57.6" y="307.584" style="stroke: #000000; stroke-width: 0.8"/>
      </g>
     </g>
     <g id="text_8">
      <!-- 0.0 -->
      <g transform="translate(34.696875 311.383219) scale(0.1 -0.1)">
       <defs>
        <path id="DejaVuSans-2e" d="M 684 794 
L 1344 794 
L 1344 0 
L 684 0 
L 684 794 
z
" transform="scale(0.015625)"/>
       </defs>
       <use xlink:href="#DejaVuSans-30"/>
       <use xlink:href="#DejaVuSans-2e" x="63.623047"/>
       <use xlink:href="#DejaVuSans-30" x="95.410156"/>
      </g>
     </g>
    </g>
    <g id="ytick_2">
     <g id="line2d_8">
      <g>
       <use xlink:href="#m9140df6bca" x="57.6" y="254.3616" style="stroke: #000000; stroke-width: 0.8"/>
      </g>
     </g>
     <g id="text_9">
      <!-- 0.2 -->
      <g transform="translate(34.696875 258.160819) scale(0.1 -0.1)">
       <defs>
        <path id="DejaVuSans-32" d="M 1228 531 
L 3431 531 
L 3431 0 
L 469 0 
L 469 531 
Q 828 903 1448 1529 
Q 2069 2156 2228 2338 
Q 2531 2678 2651 2914 
Q 2772 3150 2772 3378 
Q 2772 3750 2511 3984 
Q 2250 4219 1831 4219 
Q 1534 4219 1204 4116 
Q 875 4013 500 3803 
L 500 4441 
Q 881 4594 1212 4672 
Q 1544 4750 1819 4750 
Q 2544 4750 2975 4387 
Q 3406 4025 3406 3419 
Q 3406 3131 3298 2873 
Q 3191 2616 2906 2266 
Q 2828 2175 2409 1742 
Q 1991 1309 1228 531 
z
" transform="scale(0.015625)"/>
       </defs>
       <use xlink:href="#DejaVuSans-30"/>
       <use xlink:href="#DejaVuSans-2e" x="63.623047"/>
       <use xlink:href="#DejaVuSans-32" x="95.410156"/>
      </g>
     </g>
    </g>
    <g id="ytick_3">
     <g id="line2d_9">
      <g>
       <use xlink:href="#m9140df6bca" x="57.6" y="201.1392" style="stroke: #000000; stroke-width: 0.8"/>
      </g>
     </g>
     <g id="text_10">
      <!-- 0.4 -->
      <g transform="translate(34.696875 204.938419) scale(0.1 -0.1)">
       <use xlink:href="#DejaVuSans-30"/>
       <use xlink:href="#DejaVuSans-2e" x="63.623047"/>
       <use xlink:href="#DejaVuSans-34" x="95.410156"/>
      </g>
     </g>
    </g>
    <g id="ytick_4">
     <g id="line2d_10">
      <g>
       <use xlink:href="#m9140df6bca" x="57.6" y="147.9168" style="stroke: #000000; stroke-width: 0.8"/>
      </g>
     </g>
     <g id="text_11">
      <!-- 0.6 -->
      <g transform="translate(34.696875 151.716019) scale(0.1 -0.1)">
       <use xlink:href="#DejaVuSans-30"/>
       <use xlink:href="#DejaVuSans-2e" x="63.623047"/>
       <use xlink:href="#DejaVuSans-36" x="95.410156"/>
      </g>
     </g>
    </g>
    <g id="ytick_5">
     <g id="line2d_11">
      <g>
       <use xlink:href="#m9140df6bca" x="57.6" y="94.6944" style="stroke: #000000; stroke-width: 0.8"/>
      </g>
     </g>
     <g id="text_12">
      <!-- 0.8 -->
      <g transform="translate(34.696875 98.493619) scale(0.1 -0.1)">
       <use xlink:href="#DejaVuSans-30"/>
       <use xlink:href="#DejaVuSans-2e" x="63.623047"/>
       <use xlink:href="#DejaVuSans-38" x="95.410156"/>
      </g>
     </g>
    </g>
    <g id="ytick_6">
     <g id="line2d_12">
      <g>
       <use xlink:href="#m9140df6bca" x="57.6" y="41.472" style="stroke: #000000; stroke-width: 0.8"/>
      </g>
     </g>
     <g id="text_13">
      <!-- 1.0 -->
      <g transform="translate(34.696875 45.271219) scale(0.1 -0.1)">
       <defs>
        <path id="DejaVuSans-31" d="M 794 531 
L 1825 531 
L 1825 4091 
L 703 3866 
L 703 4441 
L 1819 4666 
L 2450 4666 
L 2450 531 
L 3481 531 
L 3481 0 
L 794 0 
L 794 531 
z
" transform="scale(0.015625)"/>
       </defs>
       <use xlink:href="#DejaVuSans-31"/>
       <use xlink:href="#DejaVuSans-2e" x="63.623047"/>
       <use xlink:href="#DejaVuSans-30" x="95.410156"/>
      </g>
     </g>
    </g>
    <g id="text_14">
     <!-- Diffraction efficiency $DE_1$ -->
     <g transform="translate(28.596875 237.378) rotate(-90) scale(0.1 -0.1)">
      <defs>
       <path id="DejaVuSans-44" d="M 1259 4147 
L 1259 519 
L 2022 519 
Q 2988 519 3436 956 
Q 3884 1394 3884 2338 
Q 3884 3275 3436 3711 
Q 2988 4147 2022 4147 
L 1259 4147 
z
M 628 4666 
L 1925 4666 
Q 3281 4666 3915 4102 
Q 4550 3538 4550 2338 
Q 4550 1131 3912 565 
Q 3275 0 1925 0 
L 628 0 
L 628 4666 
z
" transform="scale(0.015625)"/>
       <path id="DejaVuSans-66" d="M 2375 4863 
L 2375 4384 
L 1825 4384 
Q 1516 4384 1395 4259 
Q 1275 4134 1275 3809 
L 1275 3500 
L 2222 3500 
L 2222 3053 
L 1275 3053 
L 1275 0 
L 697 0 
L 697 3053 
L 147 3053 
L 147 3500 
L 697 3500 
L 697 3744 
Q 697 4328 969 4595 
Q 1241 4863 1831 4863 
L 2375 4863 
z
" transform="scale(0.015625)"/>
       <path id="DejaVuSans-63" d="M 3122 3366 
L 3122 2828 
Q 2878 2963 2633 3030 
Q 2388 3097 2138 3097 
Q 1578 3097 1268 2742 
Q 959 2388 959 1747 
Q 959 1106 1268 751 
Q 1578 397 2138 397 
Q 2388 397 2633 464 
Q 2878 531 3122 666 
L 3122 134 
Q 2881 22 2623 -34 
Q 2366 -91 2075 -91 
Q 1284 -91 818 406 
Q 353 903 353 1747 
Q 353 2603 823 3093 
Q 1294 3584 2113 3584 
Q 2378 3584 2631 3529 
Q 2884 3475 3122 3366 
z
" transform="scale(0.015625)"/>
       <path id="DejaVuSans-6e" d="M 3513 2113 
L 3513 0 
L 2938 0 
L 2938 2094 
Q 2938 2591 2744 2837 
Q 2550 3084 2163 3084 
Q 1697 3084 1428 2787 
Q 1159 2491 1159 1978 
L 1159 0 
L 581 0 
L 581 3500 
L 1159 3500 
L 1159 2956 
Q 1366 3272 1645 3428 
Q 1925 3584 2291 3584 
Q 2894 3584 3203 3211 
Q 3513 2838 3513 2113 
z
" transform="scale(0.015625)"/>
       <path id="DejaVuSans-79" d="M 2059 -325 
Q 1816 -950 1584 -1140 
Q 1353 -1331 966 -1331 
L 506 -1331 
L 506 -850 
L 844 -850 
Q 1081 -850 1212 -737 
Q 1344 -625 1503 -206 
L 1606 56 
L 191 3500 
L 800 3500 
L 1894 763 
L 2988 3500 
L 3597 3500 
L 2059 -325 
z
" transform="scale(0.015625)"/>
       <path id="DejaVuSans-Oblique-44" d="M 1081 4666 
L 2438 4666 
Q 3519 4666 4070 4208 
Q 4622 3750 4622 2847 
Q 4622 2250 4412 1698 
Q 4203 1147 3834 769 
Q 3463 381 2891 190 
Q 2319 0 1538 0 
L 172 0 
L 1081 4666 
z
M 1613 4147 
L 909 519 
L 1734 519 
Q 2794 519 3375 1128 
Q 3956 1738 3956 2847 
Q 3956 3519 3581 3833 
Q 3206 4147 2406 4147 
L 1613 4147 
z
" transform="scale(0.015625)"/>
       <path id="DejaVuSans-Oblique-45" d="M 1081 4666 
L 4031 4666 
L 3928 4134 
L 1606 4134 
L 1338 2753 
L 3566 2753 
L 3463 2222 
L 1234 2222 
L 909 531 
L 3284 531 
L 3181 0 
L 172 0 
L 1081 4666 
z
" transform="scale(0.015625)"/>
      </defs>
      <use xlink:href="#DejaVuSans-44" transform="translate(0 0.015625)"/>
      <use xlink:href="#DejaVuSans-69" transform="translate(77.001953 0.015625)"/>
      <use xlink:href="#DejaVuSans-66" transform="translate(104.785156 0.015625)"/>
      <use xlink:href="#DejaVuSans-66" transform="translate(139.990234 0.015625)"/>
      <use xlink:href="#DejaVuSans-72" transform="translate(175.195312 0.015625)"/>
      <use xlink:href="#DejaVuSans-61" transform="translate(216.308594 0.015625)"/>
      <use xlink:href="#DejaVuSans-63" transform="translate(277.587891 0.015625)"/>
      <use xlink:href="#DejaVuSans-74" transform="translate(332.568359 0.015625)"/>
      <use xlink:href="#DejaVuSans-69" transform="translate(371.777344 0.015625)"/>
      <use xlink:href="#DejaVuSans-6f" transform="translate(399.560547 0.015625)"/>
      <use xlink:href="#DejaVuSans-6e" transform="translate(460.742188 0.015625)"/>
      <use xlink:href="#DejaVuSans-20" transform="translate(524.121094 0.015625)"/>
      <use xlink:href="#DejaVuSans-65" transform="translate(555.908203 0.015625)"/>
      <use xlink:href="#DejaVuSans-66" transform="translate(617.431641 0.015625)"/>
      <use xlink:href="#DejaVuSans-66" transform="translate(652.636719 0.015625)"/>
      <use xlink:href="#DejaVuSans-69" transform="translate(687.841797 0.015625)"/>
      <use xlink:href="#DejaVuSans-63" transform="translate(715.625 0.015625)"/>
      <use xlink:href="#DejaVuSans-69" transform="translate(770.605469 0.015625)"/>
      <use xlink:href="#DejaVuSans-65" transform="translate(798.388672 0.015625)"/>
      <use xlink:href="#DejaVuSans-6e" transform="translate(859.912109 0.015625)"/>
      <use xlink:href="#DejaVuSans-63" transform="translate(923.291016 0.015625)"/>
      <use xlink:href="#DejaVuSans-79" transform="translate(978.271484 0.015625)"/>
      <use xlink:href="#DejaVuSans-20" transform="translate(1037.451172 0.015625)"/>
      <use xlink:href="#DejaVuSans-Oblique-44" transform="translate(1069.238281 0.015625)"/>
      <use xlink:href="#DejaVuSans-Oblique-45" transform="translate(1146.240234 0.015625)"/>
      <use xlink:href="#DejaVuSans-31" transform="translate(1209.423828 -16.390625) scale(0.7)"/>
     </g>
    </g>
   </g>
   <g id="line2d_13">
    <path d="M 73.832727 298.860088 
L 77.112066 300.123461 
L 80.391405 295.970516 
L 83.670744 289.282622 
L 86.950083 282.830783 
L 90.229421 277.967757 
L 93.50876 273.458169 
L 96.788099 268.961364 
L 100.067438 267.0173 
L 103.346777 269.782192 
L 106.626116 277.295274 
L 109.905455 287.232407 
L 113.184793 295.766847 
L 116.464132 299.951929 
L 119.743471 300.515844 
L 123.02281 301.595665 
L 126.302149 304.136277 
L 129.581488 303.403387 
L 132.860826 295.076907 
L 136.140165 279.020667 
L 139.419504 257.588454 
L 142.698843 233.251599 
L 145.978182 209.036052 
L 149.257521 188.719546 
L 152.53686 176.116467 
L 155.816198 174.423648 
L 159.095537 183.096581 
L 162.374876 192.422401 
L 165.654215 192.647249 
L 168.933554 189.675971 
L 172.212893 191.934567 
L 175.492231 201.206145 
L 178.77157 216.297761 
L 182.050909 234.7994 
L 185.330248 252.685004 
L 188.609587 266.014926 
L 191.888926 272.797393 
L 195.168264 273.147362 
L 198.447603 269.465486 
L 201.726942 266.877076 
L 205.006281 268.642628 
L 208.28562 267.858339 
L 211.564959 260.100318 
L 214.844298 250.998322 
L 218.123636 244.690795 
L 221.402975 241.449389 
L 224.682314 241.412953 
L 227.961653 245.951506 
L 231.240992 254.812021 
L 234.520331 265.104803 
L 237.799669 274.876423 
L 241.079008 285.214022 
L 244.358347 296.349839 
L 247.637686 304.738546 
L 250.917025 307.555438 
L 254.196364 304.355923 
L 257.475702 295.201128 
L 260.755041 281.360281 
L 264.03438 266.404516 
L 267.313719 254.387914 
L 270.593058 246.573269 
L 273.872397 242.133894 
L 277.151736 240.317418 
L 280.431074 238.064496 
L 283.710413 231.078364 
L 286.989752 222.837361 
L 290.269091 221.890194 
L 293.54843 230.096876 
L 296.827769 242.917721 
L 300.107107 255.385308 
L 303.386446 263.926461 
L 306.665785 266.334392 
L 309.945124 262.052056 
L 313.224463 253.322058 
L 316.503802 245.987946 
L 319.78314 245.946872 
L 323.062479 250.550096 
L 326.341818 246.906409 
L 329.621157 228.320813 
L 332.900496 202.887588 
L 336.179835 181.717227 
L 339.459174 171.009071 
L 342.738512 171.683653 
L 346.017851 181.614177 
L 349.29719 197.471046 
L 352.576529 216.413654 
L 355.855868 237.683821 
L 359.135207 259.866389 
L 362.414545 278.366554 
L 365.693884 291.34826 
L 368.973223 300.030356 
L 372.252562 305.024498 
L 375.531901 306.586656 
L 378.81124 304.662217 
L 382.090579 298.771909 
L 385.369917 289.673471 
L 388.649256 279.927844 
L 391.928595 271.886448 
L 395.207934 265.856064 
L 398.487273 259.583285 
" clip-path="url(#p5a89589640)" style="fill: none; stroke: #0000ff; stroke-width: 1.5; stroke-linecap: square"/>
    <defs>
     <path id="mbec5654a54" d="M 0 1.5 
C 0.397805 1.5 0.77937 1.341951 1.06066 1.06066 
C 1.341951 0.77937 1.5 0.397805 1.5 0 
C 1.5 -0.397805 1.341951 -0.77937 1.06066 -1.06066 
C 0.77937 -1.341951 0.397805 -1.5 0 -1.5 
C -0.397805 -1.5 -0.77937 -1.341951 -1.06066 -1.06066 
C -1.341951 -0.77937 -1.5 -0.397805 -1.5 0 
C -1.5 0.397805 -1.341951 0.77937 -1.06066 1.06066 
C -0.77937 1.341951 -0.397805 1.5 0 1.5 
z
" style="stroke: #0000ff"/>
    </defs>
    <g clip-path="url(#p5a89589640)">
     <use xlink:href="#mbec5654a54" x="73.832727" y="298.860088" style="fill: #0000ff; stroke: #0000ff"/>
     <use xlink:href="#mbec5654a54" x="77.112066" y="300.123461" style="fill: #0000ff; stroke: #0000ff"/>
     <use xlink:href="#mbec5654a54" x="80.391405" y="295.970516" style="fill: #0000ff; stroke: #0000ff"/>
     <use xlink:href="#mbec5654a54" x="83.670744" y="289.282622" style="fill: #0000ff; stroke: #0000ff"/>
     <use xlink:href="#mbec5654a54" x="86.950083" y="282.830783" style="fill: #0000ff; stroke: #0000ff"/>
     <use xlink:href="#mbec5654a54" x="90.229421" y="277.967757" style="fill: #0000ff; stroke: #0000ff"/>
     <use xlink:href="#mbec5654a54" x="93.50876" y="273.458169" style="fill: #0000ff; stroke: #0000ff"/>
     <use xlink:href="#mbec5654a54" x="96.788099" y="268.961364" style="fill: #0000ff; stroke: #0000ff"/>
     <use xlink:href="#mbec5654a54" x="100.067438" y="267.0173" style="fill: #0000ff; stroke: #0000ff"/>
     <use xlink:href="#mbec5654a54" x="103.346777" y="269.782192" style="fill: #0000ff; stroke: #0000ff"/>
     <use xlink:href="#mbec5654a54" x="106.626116" y="277.295274" style="fill: #0000ff; stroke: #0000ff"/>
     <use xlink:href="#mbec5654a54" x="109.905455" y="287.232407" style="fill: #0000ff; stroke: #0000ff"/>
     <use xlink:href="#mbec5654a54" x="113.184793" y="295.766847" style="fill: #0000ff; stroke: #0000ff"/>
     <use xlink:href="#mbec5654a54" x="116.464132" y="299.951929" style="fill: #0000ff; stroke: #0000ff"/>
     <use xlink:href="#mbec5654a54" x="119.743471" y="300.515844" style="fill: #0000ff; stroke: #0000ff"/>
     <use xlink:href="#mbec5654a54" x="123.02281" y="301.595665" style="fill: #0000ff; stroke: #0000ff"/>
     <use xlink:href="#mbec5654a54" x="126.302149" y="304.136277" style="fill: #0000ff; stroke: #0000ff"/>
     <use xlink:href="#mbec5654a54" x="129.581488" y="303.403387" style="fill: #0000ff; stroke: #0000ff"/>
     <use xlink:href="#mbec5654a54" x="132.860826" y="295.076907" style="fill: #0000ff; stroke: #0000ff"/>
     <use xlink:href="#mbec5654a54" x="136.140165" y="279.020667" style="fill: #0000ff; stroke: #0000ff"/>
     <use xlink:href="#mbec5654a54" x="139.419504" y="257.588454" style="fill: #0000ff; stroke: #0000ff"/>
     <use xlink:href="#mbec5654a54" x="142.698843" y="233.251599" style="fill: #0000ff; stroke: #0000ff"/>
     <use xlink:href="#mbec5654a54" x="145.978182" y="209.036052" style="fill: #0000ff; stroke: #0000ff"/>
     <use xlink:href="#mbec5654a54" x="149.257521" y="188.719546" style="fill: #0000ff; stroke: #0000ff"/>
     <use xlink:href="#mbec5654a54" x="152.53686" y="176.116467" style="fill: #0000ff; stroke: #0000ff"/>
     <use xlink:href="#mbec5654a54" x="155.816198" y="174.423648" style="fill: #0000ff; stroke: #0000ff"/>
     <use xlink:href="#mbec5654a54" x="159.095537" y="183.096581" style="fill: #0000ff; stroke: #0000ff"/>
     <use xlink:href="#mbec5654a54" x="162.374876" y="192.422401" style="fill: #0000ff; stroke: #0000ff"/>
     <use xlink:href="#mbec5654a54" x="165.654215" y="192.647249" style="fill: #0000ff; stroke: #0000ff"/>
     <use xlink:href="#mbec5654a54" x="168.933554" y="189.675971" style="fill: #0000ff; stroke: #0000ff"/>
     <use xlink:href="#mbec5654a54" x="172.212893" y="191.934567" style="fill: #0000ff; stroke: #0000ff"/>
     <use xlink:href="#mbec5654a54" x="175.492231" y="201.206145" style="fill: #0000ff; stroke: #0000ff"/>
     <use xlink:href="#mbec5654a54" x="178.77157" y="216.297761" style="fill: #0000ff; stroke: #0000ff"/>
     <use xlink:href="#mbec5654a54" x="182.050909" y="234.7994" style="fill: #0000ff; stroke: #0000ff"/>
     <use xlink:href="#mbec5654a54" x="185.330248" y="252.685004" style="fill: #0000ff; stroke: #0000ff"/>
     <use xlink:href="#mbec5654a54" x="188.609587" y="266.014926" style="fill: #0000ff; stroke: #0000ff"/>
     <use xlink:href="#mbec5654a54" x="191.888926" y="272.797393" style="fill: #0000ff; stroke: #0000ff"/>
     <use xlink:href="#mbec5654a54" x="195.168264" y="273.147362" style="fill: #0000ff; stroke: #0000ff"/>
     <use xlink:href="#mbec5654a54" x="198.447603" y="269.465486" style="fill: #0000ff; stroke: #0000ff"/>
     <use xlink:href="#mbec5654a54" x="201.726942" y="266.877076" style="fill: #0000ff; stroke: #0000ff"/>
     <use xlink:href="#mbec5654a54" x="205.006281" y="268.642628" style="fill: #0000ff; stroke: #0000ff"/>
     <use xlink:href="#mbec5654a54" x="208.28562" y="267.858339" style="fill: #0000ff; stroke: #0000ff"/>
     <use xlink:href="#mbec5654a54" x="211.564959" y="260.100318" style="fill: #0000ff; stroke: #0000ff"/>
     <use xlink:href="#mbec5654a54" x="214.844298" y="250.998322" style="fill: #0000ff; stroke: #0000ff"/>
     <use xlink:href="#mbec5654a54" x="218.123636" y="244.690795" style="fill: #0000ff; stroke: #0000ff"/>
     <use xlink:href="#mbec5654a54" x="221.402975" y="241.449389" style="fill: #0000ff; stroke: #0000ff"/>
     <use xlink:href="#mbec5654a54" x="224.682314" y="241.412953" style="fill: #0000ff; stroke: #0000ff"/>
     <use xlink:href="#mbec5654a54" x="227.961653" y="245.951506" style="fill: #0000ff; stroke: #0000ff"/>
     <use xlink:href="#mbec5654a54" x="231.240992" y="254.812021" style="fill: #0000ff; stroke: #0000ff"/>
     <use xlink:href="#mbec5654a54" x="234.520331" y="265.104803" style="fill: #0000ff; stroke: #0000ff"/>
     <use xlink:href="#mbec5654a54" x="237.799669" y="274.876423" style="fill: #0000ff; stroke: #0000ff"/>
     <use xlink:href="#mbec5654a54" x="241.079008" y="285.214022" style="fill: #0000ff; stroke: #0000ff"/>
     <use xlink:href="#mbec5654a54" x="244.358347" y="296.349839" style="fill: #0000ff; stroke: #0000ff"/>
     <use xlink:href="#mbec5654a54" x="247.637686" y="304.738546" style="fill: #0000ff; stroke: #0000ff"/>
     <use xlink:href="#mbec5654a54" x="250.917025" y="307.555438" style="fill: #0000ff; stroke: #0000ff"/>
     <use xlink:href="#mbec5654a54" x="254.196364" y="304.355923" style="fill: #0000ff; stroke: #0000ff"/>
     <use xlink:href="#mbec5654a54" x="257.475702" y="295.201128" style="fill: #0000ff; stroke: #0000ff"/>
     <use xlink:href="#mbec5654a54" x="260.755041" y="281.360281" style="fill: #0000ff; stroke: #0000ff"/>
     <use xlink:href="#mbec5654a54" x="264.03438" y="266.404516" style="fill: #0000ff; stroke: #0000ff"/>
     <use xlink:href="#mbec5654a54" x="267.313719" y="254.387914" style="fill: #0000ff; stroke: #0000ff"/>
     <use xlink:href="#mbec5654a54" x="270.593058" y="246.573269" style="fill: #0000ff; stroke: #0000ff"/>
     <use xlink:href="#mbec5654a54" x="273.872397" y="242.133894" style="fill: #0000ff; stroke: #0000ff"/>
     <use xlink:href="#mbec5654a54" x="277.151736" y="240.317418" style="fill: #0000ff; stroke: #0000ff"/>
     <use xlink:href="#mbec5654a54" x="280.431074" y="238.064496" style="fill: #0000ff; stroke: #0000ff"/>
     <use xlink:href="#mbec5654a54" x="283.710413" y="231.078364" style="fill: #0000ff; stroke: #0000ff"/>
     <use xlink:href="#mbec5654a54" x="286.989752" y="222.837361" style="fill: #0000ff; stroke: #0000ff"/>
     <use xlink:href="#mbec5654a54" x="290.269091" y="221.890194" style="fill: #0000ff; stroke: #0000ff"/>
     <use xlink:href="#mbec5654a54" x="293.54843" y="230.096876" style="fill: #0000ff; stroke: #0000ff"/>
     <use xlink:href="#mbec5654a54" x="296.827769" y="242.917721" style="fill: #0000ff; stroke: #0000ff"/>
     <use xlink:href="#mbec5654a54" x="300.107107" y="255.385308" style="fill: #0000ff; stroke: #0000ff"/>
     <use xlink:href="#mbec5654a54" x="303.386446" y="263.926461" style="fill: #0000ff; stroke: #0000ff"/>
     <use xlink:href="#mbec5654a54" x="306.665785" y="266.334392" style="fill: #0000ff; stroke: #0000ff"/>
     <use xlink:href="#mbec5654a54" x="309.945124" y="262.052056" style="fill: #0000ff; stroke: #0000ff"/>
     <use xlink:href="#mbec5654a54" x="313.224463" y="253.322058" style="fill: #0000ff; stroke: #0000ff"/>
     <use xlink:href="#mbec5654a54" x="316.503802" y="245.987946" style="fill: #0000ff; stroke: #0000ff"/>
     <use xlink:href="#mbec5654a54" x="319.78314" y="245.946872" style="fill: #0000ff; stroke: #0000ff"/>
     <use xlink:href="#mbec5654a54" x="323.062479" y="250.550096" style="fill: #0000ff; stroke: #0000ff"/>
     <use xlink:href="#mbec5654a54" x="326.341818" y="246.906409" style="fill: #0000ff; stroke: #0000ff"/>
     <use xlink:href="#mbec5654a54" x="329.621157" y="228.320813" style="fill: #0000ff; stroke: #0000ff"/>
     <use xlink:href="#mbec5654a54" x="332.900496" y="202.887588" style="fill: #0000ff; stroke: #0000ff"/>
     <use xlink:href="#mbec5654a54" x="336.179835" y="181.717227" style="fill: #0000ff; stroke: #0000ff"/>
     <use xlink:href="#mbec5654a54" x="339.459174" y="171.009071" style="fill: #0000ff; stroke: #0000ff"/>
     <use xlink:href="#mbec5654a54" x="342.738512" y="171.683653" style="fill: #0000ff; stroke: #0000ff"/>
     <use xlink:href="#mbec5654a54" x="346.017851" y="181.614177" style="fill: #0000ff; stroke: #0000ff"/>
     <use xlink:href="#mbec5654a54" x="349.29719" y="197.471046" style="fill: #0000ff; stroke: #0000ff"/>
     <use xlink:href="#mbec5654a54" x="352.576529" y="216.413654" style="fill: #0000ff; stroke: #0000ff"/>
     <use xlink:href="#mbec5654a54" x="355.855868" y="237.683821" style="fill: #0000ff; stroke: #0000ff"/>
     <use xlink:href="#mbec5654a54" x="359.135207" y="259.866389" style="fill: #0000ff; stroke: #0000ff"/>
     <use xlink:href="#mbec5654a54" x="362.414545" y="278.366554" style="fill: #0000ff; stroke: #0000ff"/>
     <use xlink:href="#mbec5654a54" x="365.693884" y="291.34826" style="fill: #0000ff; stroke: #0000ff"/>
     <use xlink:href="#mbec5654a54" x="368.973223" y="300.030356" style="fill: #0000ff; stroke: #0000ff"/>
     <use xlink:href="#mbec5654a54" x="372.252562" y="305.024498" style="fill: #0000ff; stroke: #0000ff"/>
     <use xlink:href="#mbec5654a54" x="375.531901" y="306.586656" style="fill: #0000ff; stroke: #0000ff"/>
     <use xlink:href="#mbec5654a54" x="378.81124" y="304.662217" style="fill: #0000ff; stroke: #0000ff"/>
     <use xlink:href="#mbec5654a54" x="382.090579" y="298.771909" style="fill: #0000ff; stroke: #0000ff"/>
     <use xlink:href="#mbec5654a54" x="385.369917" y="289.673471" style="fill: #0000ff; stroke: #0000ff"/>
     <use xlink:href="#mbec5654a54" x="388.649256" y="279.927844" style="fill: #0000ff; stroke: #0000ff"/>
     <use xlink:href="#mbec5654a54" x="391.928595" y="271.886448" style="fill: #0000ff; stroke: #0000ff"/>
     <use xlink:href="#mbec5654a54" x="395.207934" y="265.856064" style="fill: #0000ff; stroke: #0000ff"/>
     <use xlink:href="#mbec5654a54" x="398.487273" y="259.583285" style="fill: #0000ff; stroke: #0000ff"/>
    </g>
   </g>
   <g id="line2d_14">
    <path d="M 73.832727 215.982648 
L 77.112066 201.39469 
L 80.391405 190.104861 
L 83.670744 183.521707 
L 86.950083 180.950466 
L 90.229421 179.463947 
L 93.50876 176.633592 
L 96.788099 173.149616 
L 100.067438 171.648858 
L 103.346777 174.16318 
L 106.626116 181.514231 
L 109.905455 193.690846 
L 113.184793 209.911813 
L 116.464132 228.553715 
L 119.743471 247.681412 
L 123.02281 265.756386 
L 126.302149 281.62523 
L 129.581488 294.063904 
L 132.860826 302.010859 
L 136.140165 305.797511 
L 139.419504 306.929444 
L 142.698843 306.150536 
L 145.978182 303.229876 
L 149.257521 297.958493 
L 152.53686 290.740209 
L 155.816198 282.467932 
L 159.095537 273.900382 
L 162.374876 264.996706 
L 165.654215 254.398322 
L 168.933554 241.323203 
L 172.212893 228.801486 
L 175.492231 218.784277 
L 178.77157 211.057882 
L 182.050909 205.558092 
L 185.330248 202.836151 
L 188.609587 203.52407 
L 191.888926 207.70418 
L 195.168264 215.088501 
L 198.447603 224.983123 
L 201.726942 233.661405 
L 205.006281 235.549761 
L 208.28562 233.936052 
L 211.564959 234.521815 
L 214.844298 237.990576 
L 218.123636 243.562698 
L 221.402975 250.642501 
L 224.682314 258.553154 
L 227.961653 266.527392 
L 231.240992 274.266589 
L 234.520331 282.080501 
L 237.799669 289.662956 
L 241.079008 295.937806 
L 244.358347 300.414499 
L 247.637686 302.535507 
L 250.917025 301.439338 
L 254.196364 296.567606 
L 257.475702 288.27452 
L 260.755041 278.041411 
L 264.03438 267.591952 
L 267.313719 257.613258 
L 270.593058 247.755439 
L 273.872397 237.325151 
L 277.151736 225.410495 
L 280.431074 210.982265 
L 283.710413 194.208323 
L 286.989752 177.526506 
L 290.269091 164.170743 
L 293.54843 156.184565 
L 296.827769 154.253226 
L 300.107107 158.342813 
L 303.386446 168.143505 
L 306.665785 182.969478 
L 309.945124 201.227551 
L 313.224463 220.547889 
L 316.503802 238.796194 
L 319.78314 254.840626 
L 323.062479 268.605076 
L 326.341818 280.411767 
L 329.621157 290.202594 
L 332.900496 297.732412 
L 336.179835 302.976716 
L 339.459174 305.765934 
L 342.738512 305.563683 
L 346.017851 301.967461 
L 349.29719 295.143504 
L 352.576529 285.39192 
L 355.855868 272.82452 
L 359.135207 259.345873 
L 362.414545 247.850521 
L 365.693884 238.308048 
L 368.973223 229.959754 
L 372.252562 222.819273 
L 375.531901 217.440955 
L 378.81124 215.001854 
L 382.090579 217.075207 
L 385.369917 223.983803 
L 388.649256 231.561159 
L 391.928595 230.604523 
L 395.207934 220.613619 
L 398.487273 213.001073 
" clip-path="url(#p5a89589640)" style="fill: none; stroke: #ff0000; stroke-width: 1.5; stroke-linecap: square"/>
    <defs>
     <path id="m7985207fab" d="M 0 1.5 
C 0.397805 1.5 0.77937 1.341951 1.06066 1.06066 
C 1.341951 0.77937 1.5 0.397805 1.5 0 
C 1.5 -0.397805 1.341951 -0.77937 1.06066 -1.06066 
C 0.77937 -1.341951 0.397805 -1.5 0 -1.5 
C -0.397805 -1.5 -0.77937 -1.341951 -1.06066 -1.06066 
C -1.341951 -0.77937 -1.5 -0.397805 -1.5 0 
C -1.5 0.397805 -1.341951 0.77937 -1.06066 1.06066 
C -0.77937 1.341951 -0.397805 1.5 0 1.5 
z
" style="stroke: #ff0000"/>
    </defs>
    <g clip-path="url(#p5a89589640)">
     <use xlink:href="#m7985207fab" x="73.832727" y="215.982648" style="fill: #ff0000; stroke: #ff0000"/>
     <use xlink:href="#m7985207fab" x="77.112066" y="201.39469" style="fill: #ff0000; stroke: #ff0000"/>
     <use xlink:href="#m7985207fab" x="80.391405" y="190.104861" style="fill: #ff0000; stroke: #ff0000"/>
     <use xlink:href="#m7985207fab" x="83.670744" y="183.521707" style="fill: #ff0000; stroke: #ff0000"/>
     <use xlink:href="#m7985207fab" x="86.950083" y="180.950466" style="fill: #ff0000; stroke: #ff0000"/>
     <use xlink:href="#m7985207fab" x="90.229421" y="179.463947" style="fill: #ff0000; stroke: #ff0000"/>
     <use xlink:href="#m7985207fab" x="93.50876" y="176.633592" style="fill: #ff0000; stroke: #ff0000"/>
     <use xlink:href="#m7985207fab" x="96.788099" y="173.149616" style="fill: #ff0000; stroke: #ff0000"/>
     <use xlink:href="#m7985207fab" x="100.067438" y="171.648858" style="fill: #ff0000; stroke: #ff0000"/>
     <use xlink:href="#m7985207fab" x="103.346777" y="174.16318" style="fill: #ff0000; stroke: #ff0000"/>
     <use xlink:href="#m7985207fab" x="106.626116" y="181.514231" style="fill: #ff0000; stroke: #ff0000"/>
     <use xlink:href="#m7985207fab" x="109.905455" y="193.690846" style="fill: #ff0000; stroke: #ff0000"/>
     <use xlink:href="#m7985207fab" x="113.184793" y="209.911813" style="fill: #ff0000; stroke: #ff0000"/>
     <use xlink:href="#m7985207fab" x="116.464132" y="228.553715" style="fill: #ff0000; stroke: #ff0000"/>
     <use xlink:href="#m7985207fab" x="119.743471" y="247.681412" style="fill: #ff0000; stroke: #ff0000"/>
     <use xlink:href="#m7985207fab" x="123.02281" y="265.756386" style="fill: #ff0000; stroke: #ff0000"/>
     <use xlink:href="#m7985207fab" x="126.302149" y="281.62523" style="fill: #ff0000; stroke: #ff0000"/>
     <use xlink:href="#m7985207fab" x="129.581488" y="294.063904" style="fill: #ff0000; stroke: #ff0000"/>
     <use xlink:href="#m7985207fab" x="132.860826" y="302.010859" style="fill: #ff0000; stroke: #ff0000"/>
     <use xlink:href="#m7985207fab" x="136.140165" y="305.797511" style="fill: #ff0000; stroke: #ff0000"/>
     <use xlink:href="#m7985207fab" x="139.419504" y="306.929444" style="fill: #ff0000; stroke: #ff0000"/>
     <use xlink:href="#m7985207fab" x="142.698843" y="306.150536" style="fill: #ff0000; stroke: #ff0000"/>
     <use xlink:href="#m7985207fab" x="145.978182" y="303.229876" style="fill: #ff0000; stroke: #ff0000"/>
     <use xlink:href="#m7985207fab" x="149.257521" y="297.958493" style="fill: #ff0000; stroke: #ff0000"/>
     <use xlink:href="#m7985207fab" x="152.53686" y="290.740209" style="fill: #ff0000; stroke: #ff0000"/>
     <use xlink:href="#m7985207fab" x="155.816198" y="282.467932" style="fill: #ff0000; stroke: #ff0000"/>
     <use xlink:href="#m7985207fab" x="159.095537" y="273.900382" style="fill: #ff0000; stroke: #ff0000"/>
     <use xlink:href="#m7985207fab" x="162.374876" y="264.996706" style="fill: #ff0000; stroke: #ff0000"/>
     <use xlink:href="#m7985207fab" x="165.654215" y="254.398322" style="fill: #ff0000; stroke: #ff0000"/>
     <use xlink:href="#m7985207fab" x="168.933554" y="241.323203" style="fill: #ff0000; stroke: #ff0000"/>
     <use xlink:href="#m7985207fab" x="172.212893" y="228.801486" style="fill: #ff0000; stroke: #ff0000"/>
     <use xlink:href="#m7985207fab" x="175.492231" y="218.784277" style="fill: #ff0000; stroke: #ff0000"/>
     <use xlink:href="#m7985207fab" x="178.77157" y="211.057882" style="fill: #ff0000; stroke: #ff0000"/>
     <use xlink:href="#m7985207fab" x="182.050909" y="205.558092" style="fill: #ff0000; stroke: #ff0000"/>
     <use xlink:href="#m7985207fab" x="185.330248" y="202.836151" style="fill: #ff0000; stroke: #ff0000"/>
     <use xlink:href="#m7985207fab" x="188.609587" y="203.52407" style="fill: #ff0000; stroke: #ff0000"/>
     <use xlink:href="#m7985207fab" x="191.888926" y="207.70418" style="fill: #ff0000; stroke: #ff0000"/>
     <use xlink:href="#m7985207fab" x="195.168264" y="215.088501" style="fill: #ff0000; stroke: #ff0000"/>
     <use xlink:href="#m7985207fab" x="198.447603" y="224.983123" style="fill: #ff0000; stroke: #ff0000"/>
     <use xlink:href="#m7985207fab" x="201.726942" y="233.661405" style="fill: #ff0000; stroke: #ff0000"/>
     <use xlink:href="#m7985207fab" x="205.006281" y="235.549761" style="fill: #ff0000; stroke: #ff0000"/>
     <use xlink:href="#m7985207fab" x="208.28562" y="233.936052" style="fill: #ff0000; stroke: #ff0000"/>
     <use xlink:href="#m7985207fab" x="211.564959" y="234.521815" style="fill: #ff0000; stroke: #ff0000"/>
     <use xlink:href="#m7985207fab" x="214.844298" y="237.990576" style="fill: #ff0000; stroke: #ff0000"/>
     <use xlink:href="#m7985207fab" x="218.123636" y="243.562698" style="fill: #ff0000; stroke: #ff0000"/>
     <use xlink:href="#m7985207fab" x="221.402975" y="250.642501" style="fill: #ff0000; stroke: #ff0000"/>
     <use xlink:href="#m7985207fab" x="224.682314" y="258.553154" style="fill: #ff0000; stroke: #ff0000"/>
     <use xlink:href="#m7985207fab" x="227.961653" y="266.527392" style="fill: #ff0000; stroke: #ff0000"/>
     <use xlink:href="#m7985207fab" x="231.240992" y="274.266589" style="fill: #ff0000; stroke: #ff0000"/>
     <use xlink:href="#m7985207fab" x="234.520331" y="282.080501" style="fill: #ff0000; stroke: #ff0000"/>
     <use xlink:href="#m7985207fab" x="237.799669" y="289.662956" style="fill: #ff0000; stroke: #ff0000"/>
     <use xlink:href="#m7985207fab" x="241.079008" y="295.937806" style="fill: #ff0000; stroke: #ff0000"/>
     <use xlink:href="#m7985207fab" x="244.358347" y="300.414499" style="fill: #ff0000; stroke: #ff0000"/>
     <use xlink:href="#m7985207fab" x="247.637686" y="302.535507" style="fill: #ff0000; stroke: #ff0000"/>
     <use xlink:href="#m7985207fab" x="250.917025" y="301.439338" style="fill: #ff0000; stroke: #ff0000"/>
     <use xlink:href="#m7985207fab" x="254.196364" y="296.567606" style="fill: #ff0000; stroke: #ff0000"/>
     <use xlink:href="#m7985207fab" x="257.475702" y="288.27452" style="fill: #ff0000; stroke: #ff0000"/>
     <use xlink:href="#m7985207fab" x="260.755041" y="278.041411" style="fill: #ff0000; stroke: #ff0000"/>
     <use xlink:href="#m7985207fab" x="264.03438" y="267.591952" style="fill: #ff0000; stroke: #ff0000"/>
     <use xlink:href="#m7985207fab" x="267.313719" y="257.613258" style="fill: #ff0000; stroke: #ff0000"/>
     <use xlink:href="#m7985207fab" x="270.593058" y="247.755439" style="fill: #ff0000; stroke: #ff0000"/>
     <use xlink:href="#m7985207fab" x="273.872397" y="237.325151" style="fill: #ff0000; stroke: #ff0000"/>
     <use xlink:href="#m7985207fab" x="277.151736" y="225.410495" style="fill: #ff0000; stroke: #ff0000"/>
     <use xlink:href="#m7985207fab" x="280.431074" y="210.982265" style="fill: #ff0000; stroke: #ff0000"/>
     <use xlink:href="#m7985207fab" x="283.710413" y="194.208323" style="fill: #ff0000; stroke: #ff0000"/>
     <use xlink:href="#m7985207fab" x="286.989752" y="177.526506" style="fill: #ff0000; stroke: #ff0000"/>
     <use xlink:href="#m7985207fab" x="290.269091" y="164.170743" style="fill: #ff0000; stroke: #ff0000"/>
     <use xlink:href="#m7985207fab" x="293.54843" y="156.184565" style="fill: #ff0000; stroke: #ff0000"/>
     <use xlink:href="#m7985207fab" x="296.827769" y="154.253226" style="fill: #ff0000; stroke: #ff0000"/>
     <use xlink:href="#m7985207fab" x="300.107107" y="158.342813" style="fill: #ff0000; stroke: #ff0000"/>
     <use xlink:href="#m7985207fab" x="303.386446" y="168.143505" style="fill: #ff0000; stroke: #ff0000"/>
     <use xlink:href="#m7985207fab" x="306.665785" y="182.969478" style="fill: #ff0000; stroke: #ff0000"/>
     <use xlink:href="#m7985207fab" x="309.945124" y="201.227551" style="fill: #ff0000; stroke: #ff0000"/>
     <use xlink:href="#m7985207fab" x="313.224463" y="220.547889" style="fill: #ff0000; stroke: #ff0000"/>
     <use xlink:href="#m7985207fab" x="316.503802" y="238.796194" style="fill: #ff0000; stroke: #ff0000"/>
     <use xlink:href="#m7985207fab" x="319.78314" y="254.840626" style="fill: #ff0000; stroke: #ff0000"/>
     <use xlink:href="#m7985207fab" x="323.062479" y="268.605076" style="fill: #ff0000; stroke: #ff0000"/>
     <use xlink:href="#m7985207fab" x="326.341818" y="280.411767" style="fill: #ff0000; stroke: #ff0000"/>
     <use xlink:href="#m7985207fab" x="329.621157" y="290.202594" style="fill: #ff0000; stroke: #ff0000"/>
     <use xlink:href="#m7985207fab" x="332.900496" y="297.732412" style="fill: #ff0000; stroke: #ff0000"/>
     <use xlink:href="#m7985207fab" x="336.179835" y="302.976716" style="fill: #ff0000; stroke: #ff0000"/>
     <use xlink:href="#m7985207fab" x="339.459174" y="305.765934" style="fill: #ff0000; stroke: #ff0000"/>
     <use xlink:href="#m7985207fab" x="342.738512" y="305.563683" style="fill: #ff0000; stroke: #ff0000"/>
     <use xlink:href="#m7985207fab" x="346.017851" y="301.967461" style="fill: #ff0000; stroke: #ff0000"/>
     <use xlink:href="#m7985207fab" x="349.29719" y="295.143504" style="fill: #ff0000; stroke: #ff0000"/>
     <use xlink:href="#m7985207fab" x="352.576529" y="285.39192" style="fill: #ff0000; stroke: #ff0000"/>
     <use xlink:href="#m7985207fab" x="355.855868" y="272.82452" style="fill: #ff0000; stroke: #ff0000"/>
     <use xlink:href="#m7985207fab" x="359.135207" y="259.345873" style="fill: #ff0000; stroke: #ff0000"/>
     <use xlink:href="#m7985207fab" x="362.414545" y="247.850521" style="fill: #ff0000; stroke: #ff0000"/>
     <use xlink:href="#m7985207fab" x="365.693884" y="238.308048" style="fill: #ff0000; stroke: #ff0000"/>
     <use xlink:href="#m7985207fab" x="368.973223" y="229.959754" style="fill: #ff0000; stroke: #ff0000"/>
     <use xlink:href="#m7985207fab" x="372.252562" y="222.819273" style="fill: #ff0000; stroke: #ff0000"/>
     <use xlink:href="#m7985207fab" x="375.531901" y="217.440955" style="fill: #ff0000; stroke: #ff0000"/>
     <use xlink:href="#m7985207fab" x="378.81124" y="215.001854" style="fill: #ff0000; stroke: #ff0000"/>
     <use xlink:href="#m7985207fab" x="382.090579" y="217.075207" style="fill: #ff0000; stroke: #ff0000"/>
     <use xlink:href="#m7985207fab" x="385.369917" y="223.983803" style="fill: #ff0000; stroke: #ff0000"/>
     <use xlink:href="#m7985207fab" x="388.649256" y="231.561159" style="fill: #ff0000; stroke: #ff0000"/>
     <use xlink:href="#m7985207fab" x="391.928595" y="230.604523" style="fill: #ff0000; stroke: #ff0000"/>
     <use xlink:href="#m7985207fab" x="395.207934" y="220.613619" style="fill: #ff0000; stroke: #ff0000"/>
     <use xlink:href="#m7985207fab" x="398.487273" y="213.001073" style="fill: #ff0000; stroke: #ff0000"/>
    </g>
   </g>
   <g id="line2d_15">
    <path d="M 73.832727 255.875515 
L 77.112066 255.193518 
L 80.391405 253.618435 
L 83.670744 252.68392 
L 86.950083 257.544966 
L 90.229421 270.576084 
L 93.50876 286.780997 
L 96.788099 299.384769 
L 100.067438 304.843015 
L 103.346777 303.215091 
L 106.626116 295.34182 
L 109.905455 281.840179 
L 113.184793 264.726072 
L 116.464132 248.106483 
L 119.743471 236.12144 
L 123.02281 229.023295 
L 126.302149 221.004635 
L 129.581488 206.770793 
L 132.860826 190.635732 
L 136.140165 180.188369 
L 139.419504 179.072379 
L 142.698843 188.006346 
L 145.978182 205.254152 
L 149.257521 226.508639 
L 152.53686 247.128894 
L 155.816198 264.224282 
L 159.095537 276.65432 
L 162.374876 284.490408 
L 165.654215 288.914218 
L 168.933554 290.790096 
L 172.212893 288.102761 
L 175.492231 278.736508 
L 178.77157 263.82165 
L 182.050909 246.231724 
L 185.330248 228.245421 
L 188.609587 212.056737 
L 191.888926 201.206017 
L 195.168264 198.515971 
L 198.447603 203.533569 
L 201.726942 213.827351 
L 205.006281 228.302614 
L 208.28562 245.859806 
L 211.564959 263.314182 
L 214.844298 278.961945 
L 218.123636 291.896294 
L 221.402975 300.432601 
L 224.682314 303.652 
L 227.961653 301.964092 
L 231.240992 296.429004 
L 234.520331 287.935992 
L 237.799669 277.057498 
L 241.079008 264.881098 
L 244.358347 251.607301 
L 247.637686 237.219717 
L 250.917025 226.074116 
L 254.196364 223.004598 
L 257.475702 226.813066 
L 260.755041 234.792126 
L 264.03438 246.560731 
L 267.313719 261.471918 
L 270.593058 277.112027 
L 273.872397 290.298383 
L 277.151736 298.651926 
L 280.431074 302.045679 
L 283.710413 302.23207 
L 286.989752 299.075784 
L 290.269091 290.189719 
L 293.54843 272.847743 
L 296.827769 247.046291 
L 300.107107 218.302007 
L 303.386446 193.395734 
L 306.665785 175.730979 
L 309.945124 165.847701 
L 313.224463 163.891604 
L 316.503802 170.361164 
L 319.78314 184.156319 
L 323.062479 199.201996 
L 326.341818 210.872686 
L 329.621157 223.054508 
L 332.900496 238.163311 
L 336.179835 253.970217 
L 339.459174 267.810539 
L 342.738512 278.873765 
L 346.017851 286.691459 
L 349.29719 289.515072 
L 352.576529 286.399092 
L 355.855868 278.798642 
L 359.135207 269.298375 
L 362.414545 260.589605 
L 365.693884 255.548015 
L 368.973223 254.153133 
L 372.252562 253.935202 
L 375.531901 255.917414 
L 378.81124 262.122885 
L 382.090579 272.549744 
L 385.369917 284.734164 
L 388.649256 294.960484 
L 391.928595 300.8594 
L 395.207934 303.007186 
L 398.487273 304.277358 
" clip-path="url(#p5a89589640)" style="fill: none; stroke: #000000; stroke-width: 1.5; stroke-linecap: square"/>
    <defs>
     <path id="m1ef46082bb" d="M 0 1.5 
C 0.397805 1.5 0.77937 1.341951 1.06066 1.06066 
C 1.341951 0.77937 1.5 0.397805 1.5 0 
C 1.5 -0.397805 1.341951 -0.77937 1.06066 -1.06066 
C 0.77937 -1.341951 0.397805 -1.5 0 -1.5 
C -0.397805 -1.5 -0.77937 -1.341951 -1.06066 -1.06066 
C -1.341951 -0.77937 -1.5 -0.397805 -1.5 0 
C -1.5 0.397805 -1.341951 0.77937 -1.06066 1.06066 
C -0.77937 1.341951 -0.397805 1.5 0 1.5 
z
" style="stroke: #000000"/>
    </defs>
    <g clip-path="url(#p5a89589640)">
     <use xlink:href="#m1ef46082bb" x="73.832727" y="255.875515" style="stroke: #000000"/>
     <use xlink:href="#m1ef46082bb" x="77.112066" y="255.193518" style="stroke: #000000"/>
     <use xlink:href="#m1ef46082bb" x="80.391405" y="253.618435" style="stroke: #000000"/>
     <use xlink:href="#m1ef46082bb" x="83.670744" y="252.68392" style="stroke: #000000"/>
     <use xlink:href="#m1ef46082bb" x="86.950083" y="257.544966" style="stroke: #000000"/>
     <use xlink:href="#m1ef46082bb" x="90.229421" y="270.576084" style="stroke: #000000"/>
     <use xlink:href="#m1ef46082bb" x="93.50876" y="286.780997" style="stroke: #000000"/>
     <use xlink:href="#m1ef46082bb" x="96.788099" y="299.384769" style="stroke: #000000"/>
     <use xlink:href="#m1ef46082bb" x="100.067438" y="304.843015" style="stroke: #000000"/>
     <use xlink:href="#m1ef46082bb" x="103.346777" y="303.215091" style="stroke: #000000"/>
     <use xlink:href="#m1ef46082bb" x="106.626116" y="295.34182" style="stroke: #000000"/>
     <use xlink:href="#m1ef46082bb" x="109.905455" y="281.840179" style="stroke: #000000"/>
     <use xlink:href="#m1ef46082bb" x="113.184793" y="264.726072" style="stroke: #000000"/>
     <use xlink:href="#m1ef46082bb" x="116.464132" y="248.106483" style="stroke: #000000"/>
     <use xlink:href="#m1ef46082bb" x="119.743471" y="236.12144" style="stroke: #000000"/>
     <use xlink:href="#m1ef46082bb" x="123.02281" y="229.023295" style="stroke: #000000"/>
     <use xlink:href="#m1ef46082bb" x="126.302149" y="221.004635" style="stroke: #000000"/>
     <use xlink:href="#m1ef46082bb" x="129.581488" y="206.770793" style="stroke: #000000"/>
     <use xlink:href="#m1ef46082bb" x="132.860826" y="190.635732" style="stroke: #000000"/>
     <use xlink:href="#m1ef46082bb" x="136.140165" y="180.188369" style="stroke: #000000"/>
     <use xlink:href="#m1ef46082bb" x="139.419504" y="179.072379" style="stroke: #000000"/>
     <use xlink:href="#m1ef46082bb" x="142.698843" y="188.006346" style="stroke: #000000"/>
     <use xlink:href="#m1ef46082bb" x="145.978182" y="205.254152" style="stroke: #000000"/>
     <use xlink:href="#m1ef46082bb" x="149.257521" y="226.508639" style="stroke: #000000"/>
     <use xlink:href="#m1ef46082bb" x="152.53686" y="247.128894" style="stroke: #000000"/>
     <use xlink:href="#m1ef46082bb" x="155.816198" y="264.224282" style="stroke: #000000"/>
     <use xlink:href="#m1ef46082bb" x="159.095537" y="276.65432" style="stroke: #000000"/>
     <use xlink:href="#m1ef46082bb" x="162.374876" y="284.490408" style="stroke: #000000"/>
     <use xlink:href="#m1ef46082bb" x="165.654215" y="288.914218" style="stroke: #000000"/>
     <use xlink:href="#m1ef46082bb" x="168.933554" y="290.790096" style="stroke: #000000"/>
     <use xlink:href="#m1ef46082bb" x="172.212893" y="288.102761" style="stroke: #000000"/>
     <use xlink:href="#m1ef46082bb" x="175.492231" y="278.736508" style="stroke: #000000"/>
     <use xlink:href="#m1ef46082bb" x="178.77157" y="263.82165" style="stroke: #000000"/>
     <use xlink:href="#m1ef46082bb" x="182.050909" y="246.231724" style="stroke: #000000"/>
     <use xlink:href="#m1ef46082bb" x="185.330248" y="228.245421" style="stroke: #000000"/>
     <use xlink:href="#m1ef46082bb" x="188.609587" y="212.056737" style="stroke: #000000"/>
     <use xlink:href="#m1ef46082bb" x="191.888926" y="201.206017" style="stroke: #000000"/>
     <use xlink:href="#m1ef46082bb" x="195.168264" y="198.515971" style="stroke: #000000"/>
     <use xlink:href="#m1ef46082bb" x="198.447603" y="203.533569" style="stroke: #000000"/>
     <use xlink:href="#m1ef46082bb" x="201.726942" y="213.827351" style="stroke: #000000"/>
     <use xlink:href="#m1ef46082bb" x="205.006281" y="228.302614" style="stroke: #000000"/>
     <use xlink:href="#m1ef46082bb" x="208.28562" y="245.859806" style="stroke: #000000"/>
     <use xlink:href="#m1ef46082bb" x="211.564959" y="263.314182" style="stroke: #000000"/>
     <use xlink:href="#m1ef46082bb" x="214.844298" y="278.961945" style="stroke: #000000"/>
     <use xlink:href="#m1ef46082bb" x="218.123636" y="291.896294" style="stroke: #000000"/>
     <use xlink:href="#m1ef46082bb" x="221.402975" y="300.432601" style="stroke: #000000"/>
     <use xlink:href="#m1ef46082bb" x="224.682314" y="303.652" style="stroke: #000000"/>
     <use xlink:href="#m1ef46082bb" x="227.961653" y="301.964092" style="stroke: #000000"/>
     <use xlink:href="#m1ef46082bb" x="231.240992" y="296.429004" style="stroke: #000000"/>
     <use xlink:href="#m1ef46082bb" x="234.520331" y="287.935992" style="stroke: #000000"/>
     <use xlink:href="#m1ef46082bb" x="237.799669" y="277.057498" style="stroke: #000000"/>
     <use xlink:href="#m1ef46082bb" x="241.079008" y="264.881098" style="stroke: #000000"/>
     <use xlink:href="#m1ef46082bb" x="244.358347" y="251.607301" style="stroke: #000000"/>
     <use xlink:href="#m1ef46082bb" x="247.637686" y="237.219717" style="stroke: #000000"/>
     <use xlink:href="#m1ef46082bb" x="250.917025" y="226.074116" style="stroke: #000000"/>
     <use xlink:href="#m1ef46082bb" x="254.196364" y="223.004598" style="stroke: #000000"/>
     <use xlink:href="#m1ef46082bb" x="257.475702" y="226.813066" style="stroke: #000000"/>
     <use xlink:href="#m1ef46082bb" x="260.755041" y="234.792126" style="stroke: #000000"/>
     <use xlink:href="#m1ef46082bb" x="264.03438" y="246.560731" style="stroke: #000000"/>
     <use xlink:href="#m1ef46082bb" x="267.313719" y="261.471918" style="stroke: #000000"/>
     <use xlink:href="#m1ef46082bb" x="270.593058" y="277.112027" style="stroke: #000000"/>
     <use xlink:href="#m1ef46082bb" x="273.872397" y="290.298383" style="stroke: #000000"/>
     <use xlink:href="#m1ef46082bb" x="277.151736" y="298.651926" style="stroke: #000000"/>
     <use xlink:href="#m1ef46082bb" x="280.431074" y="302.045679" style="stroke: #000000"/>
     <use xlink:href="#m1ef46082bb" x="283.710413" y="302.23207" style="stroke: #000000"/>
     <use xlink:href="#m1ef46082bb" x="286.989752" y="299.075784" style="stroke: #000000"/>
     <use xlink:href="#m1ef46082bb" x="290.269091" y="290.189719" style="stroke: #000000"/>
     <use xlink:href="#m1ef46082bb" x="293.54843" y="272.847743" style="stroke: #000000"/>
     <use xlink:href="#m1ef46082bb" x="296.827769" y="247.046291" style="stroke: #000000"/>
     <use xlink:href="#m1ef46082bb" x="300.107107" y="218.302007" style="stroke: #000000"/>
     <use xlink:href="#m1ef46082bb" x="303.386446" y="193.395734" style="stroke: #000000"/>
     <use xlink:href="#m1ef46082bb" x="306.665785" y="175.730979" style="stroke: #000000"/>
     <use xlink:href="#m1ef46082bb" x="309.945124" y="165.847701" style="stroke: #000000"/>
     <use xlink:href="#m1ef46082bb" x="313.224463" y="163.891604" style="stroke: #000000"/>
     <use xlink:href="#m1ef46082bb" x="316.503802" y="170.361164" style="stroke: #000000"/>
     <use xlink:href="#m1ef46082bb" x="319.78314" y="184.156319" style="stroke: #000000"/>
     <use xlink:href="#m1ef46082bb" x="323.062479" y="199.201996" style="stroke: #000000"/>
     <use xlink:href="#m1ef46082bb" x="326.341818" y="210.872686" style="stroke: #000000"/>
     <use xlink:href="#m1ef46082bb" x="329.621157" y="223.054508" style="stroke: #000000"/>
     <use xlink:href="#m1ef46082bb" x="332.900496" y="238.163311" style="stroke: #000000"/>
     <use xlink:href="#m1ef46082bb" x="336.179835" y="253.970217" style="stroke: #000000"/>
     <use xlink:href="#m1ef46082bb" x="339.459174" y="267.810539" style="stroke: #000000"/>
     <use xlink:href="#m1ef46082bb" x="342.738512" y="278.873765" style="stroke: #000000"/>
     <use xlink:href="#m1ef46082bb" x="346.017851" y="286.691459" style="stroke: #000000"/>
     <use xlink:href="#m1ef46082bb" x="349.29719" y="289.515072" style="stroke: #000000"/>
     <use xlink:href="#m1ef46082bb" x="352.576529" y="286.399092" style="stroke: #000000"/>
     <use xlink:href="#m1ef46082bb" x="355.855868" y="278.798642" style="stroke: #000000"/>
     <use xlink:href="#m1ef46082bb" x="359.135207" y="269.298375" style="stroke: #000000"/>
     <use xlink:href="#m1ef46082bb" x="362.414545" y="260.589605" style="stroke: #000000"/>
     <use xlink:href="#m1ef46082bb" x="365.693884" y="255.548015" style="stroke: #000000"/>
     <use xlink:href="#m1ef46082bb" x="368.973223" y="254.153133" style="stroke: #000000"/>
     <use xlink:href="#m1ef46082bb" x="372.252562" y="253.935202" style="stroke: #000000"/>
     <use xlink:href="#m1ef46082bb" x="375.531901" y="255.917414" style="stroke: #000000"/>
     <use xlink:href="#m1ef46082bb" x="378.81124" y="262.122885" style="stroke: #000000"/>
     <use xlink:href="#m1ef46082bb" x="382.090579" y="272.549744" style="stroke: #000000"/>
     <use xlink:href="#m1ef46082bb" x="385.369917" y="284.734164" style="stroke: #000000"/>
     <use xlink:href="#m1ef46082bb" x="388.649256" y="294.960484" style="stroke: #000000"/>
     <use xlink:href="#m1ef46082bb" x="391.928595" y="300.8594" style="stroke: #000000"/>
     <use xlink:href="#m1ef46082bb" x="395.207934" y="303.007186" style="stroke: #000000"/>
     <use xlink:href="#m1ef46082bb" x="398.487273" y="304.277358" style="stroke: #000000"/>
    </g>
   </g>
   <g id="patch_3">
    <path d="M 57.6 307.584 
L 57.6 41.472 
" style="fill: none; stroke: #000000; stroke-width: 0.8; stroke-linejoin: miter; stroke-linecap: square"/>
   </g>
   <g id="patch_4">
    <path d="M 414.72 307.584 
L 414.72 41.472 
" style="fill: none; stroke: #000000; stroke-width: 0.8; stroke-linejoin: miter; stroke-linecap: square"/>
   </g>
   <g id="patch_5">
    <path d="M 57.6 307.584 
L 414.72 307.584 
" style="fill: none; stroke: #000000; stroke-width: 0.8; stroke-linejoin: miter; stroke-linecap: square"/>
   </g>
   <g id="patch_6">
    <path d="M 57.6 41.472 
L 414.72 41.472 
" style="fill: none; stroke: #000000; stroke-width: 0.8; stroke-linejoin: miter; stroke-linecap: square"/>
   </g>
   <g id="text_15">
    <!-- First-order transmitted diffraction efficiency -->
    <g transform="translate(104.865 22.034625) scale(0.12 -0.12)">
     <defs>
      <path id="DejaVuSans-46" d="M 628 4666 
L 3309 4666 
L 3309 4134 
L 1259 4134 
L 1259 2759 
L 3109 2759 
L 3109 2228 
L 1259 2228 
L 1259 0 
L 628 0 
L 628 4666 
z
" transform="scale(0.015625)"/>
      <path id="DejaVuSans-73" d="M 2834 3397 
L 2834 2853 
Q 2591 2978 2328 3040 
Q 2066 3103 1784 3103 
Q 1356 3103 1142 2972 
Q 928 2841 928 2578 
Q 928 2378 1081 2264 
Q 1234 2150 1697 2047 
L 1894 2003 
Q 2506 1872 2764 1633 
Q 3022 1394 3022 966 
Q 3022 478 2636 193 
Q 2250 -91 1575 -91 
Q 1294 -91 989 -36 
Q 684 19 347 128 
L 347 722 
Q 666 556 975 473 
Q 1284 391 1588 391 
Q 1994 391 2212 530 
Q 2431 669 2431 922 
Q 2431 1156 2273 1281 
Q 2116 1406 1581 1522 
L 1381 1569 
Q 847 1681 609 1914 
Q 372 2147 372 2553 
Q 372 3047 722 3315 
Q 1072 3584 1716 3584 
Q 2034 3584 2315 3537 
Q 2597 3491 2834 3397 
z
" transform="scale(0.015625)"/>
      <path id="DejaVuSans-2d" d="M 313 2009 
L 1997 2009 
L 1997 1497 
L 313 1497 
L 313 2009 
z
" transform="scale(0.015625)"/>
     </defs>
     <use xlink:href="#DejaVuSans-46"/>
     <use xlink:href="#DejaVuSans-69" x="50.269531"/>
     <use xlink:href="#DejaVuSans-72" x="78.052734"/>
     <use xlink:href="#DejaVuSans-73" x="119.166016"/>
     <use xlink:href="#DejaVuSans-74" x="171.265625"/>
     <use xlink:href="#DejaVuSans-2d" x="210.474609"/>
     <use xlink:href="#DejaVuSans-6f" x="248.433594"/>
     <use xlink:href="#DejaVuSans-72" x="309.615234"/>
     <use xlink:href="#DejaVuSans-64" x="348.978516"/>
     <use xlink:href="#DejaVuSans-65" x="412.455078"/>
     <use xlink:href="#DejaVuSans-72" x="473.978516"/>
     <use xlink:href="#DejaVuSans-20" x="515.091797"/>
     <use xlink:href="#DejaVuSans-74" x="546.878906"/>
     <use xlink:href="#DejaVuSans-72" x="586.087891"/>
     <use xlink:href="#DejaVuSans-61" x="627.201172"/>
     <use xlink:href="#DejaVuSans-6e" x="688.480469"/>
     <use xlink:href="#DejaVuSans-73" x="751.859375"/>
     <use xlink:href="#DejaVuSans-6d" x="803.958984"/>
     <use xlink:href="#DejaVuSans-69" x="901.371094"/>
     <use xlink:href="#DejaVuSans-74" x="929.154297"/>
     <use xlink:href="#DejaVuSans-74" x="968.363281"/>
     <use xlink:href="#DejaVuSans-65" x="1007.572266"/>
     <use xlink:href="#DejaVuSans-64" x="1069.095703"/>
     <use xlink:href="#DejaVuSans-20" x="1132.572266"/>
     <use xlink:href="#DejaVuSans-64" x="1164.359375"/>
     <use xlink:href="#DejaVuSans-69" x="1227.835938"/>
     <use xlink:href="#DejaVuSans-66" x="1255.619141"/>
     <use xlink:href="#DejaVuSans-66" x="1290.824219"/>
     <use xlink:href="#DejaVuSans-72" x="1326.029297"/>
     <use xlink:href="#DejaVuSans-61" x="1367.142578"/>
     <use xlink:href="#DejaVuSans-63" x="1428.421875"/>
     <use xlink:href="#DejaVuSans-74" x="1483.402344"/>
     <use xlink:href="#DejaVuSans-69" x="1522.611328"/>
     <use xlink:href="#DejaVuSans-6f" x="1550.394531"/>
     <use xlink:href="#DejaVuSans-6e" x="1611.576172"/>
     <use xlink:href="#DejaVuSans-20" x="1674.955078"/>
     <use xlink:href="#DejaVuSans-65" x="1706.742188"/>
     <use xlink:href="#DejaVuSans-66" x="1768.265625"/>
     <use xlink:href="#DejaVuSans-66" x="1803.470703"/>
     <use xlink:href="#DejaVuSans-69" x="1838.675781"/>
     <use xlink:href="#DejaVuSans-63" x="1866.458984"/>
     <use xlink:href="#DejaVuSans-69" x="1921.439453"/>
     <use xlink:href="#DejaVuSans-65" x="1949.222656"/>
     <use xlink:href="#DejaVuSans-6e" x="2010.746094"/>
     <use xlink:href="#DejaVuSans-63" x="2074.125"/>
     <use xlink:href="#DejaVuSans-79" x="2129.105469"/>
    </g>
    <!-- $n_I = 1$, $n_{II} = 2.04$, $\theta = 10^\circ$, $\Lambda = \lambda_0$ -->
    <g transform="translate(140.1 35.472) scale(0.12 -0.12)">
     <defs>
      <path id="DejaVuSans-Oblique-6e" d="M 3566 2113 
L 3156 0 
L 2578 0 
L 2988 2091 
Q 3016 2238 3031 2350 
Q 3047 2463 3047 2528 
Q 3047 2791 2881 2937 
Q 2716 3084 2419 3084 
Q 1956 3084 1622 2776 
Q 1288 2469 1184 1941 
L 800 0 
L 225 0 
L 903 3500 
L 1478 3500 
L 1363 2950 
Q 1603 3253 1940 3418 
Q 2278 3584 2650 3584 
Q 3113 3584 3367 3334 
Q 3622 3084 3622 2631 
Q 3622 2519 3608 2391 
Q 3594 2263 3566 2113 
z
" transform="scale(0.015625)"/>
      <path id="DejaVuSans-Oblique-49" d="M 1081 4666 
L 1716 4666 
L 806 0 
L 172 0 
L 1081 4666 
z
" transform="scale(0.015625)"/>
      <path id="DejaVuSans-3d" d="M 678 2906 
L 4684 2906 
L 4684 2381 
L 678 2381 
L 678 2906 
z
M 678 1631 
L 4684 1631 
L 4684 1100 
L 678 1100 
L 678 1631 
z
" transform="scale(0.015625)"/>
      <path id="DejaVuSans-2c" d="M 750 794 
L 1409 794 
L 1409 256 
L 897 -744 
L 494 -744 
L 750 256 
L 750 794 
z
" transform="scale(0.015625)"/>
      <path id="DejaVuSans-Oblique-3b8" d="M 2913 2219 
L 925 2219 
Q 791 1284 928 888 
Q 1100 400 1566 400 
Q 2034 400 2391 891 
Q 2703 1322 2913 2219 
z
M 3009 2750 
Q 3094 3638 2984 3950 
Q 2813 4444 2353 4444 
Q 1875 4444 1525 3956 
Q 1250 3563 1034 2750 
L 3009 2750 
z
M 2444 4913 
Q 3194 4913 3494 4250 
Q 3794 3591 3566 2422 
Q 3341 1256 2781 594 
Q 2225 -72 1475 -72 
Q 722 -72 425 594 
Q 128 1256 353 2422 
Q 581 3591 1134 4250 
Q 1691 4913 2444 4913 
z
" transform="scale(0.015625)"/>
      <path id="DejaVuSans-2218" d="M 2000 2619 
Q 1750 2619 1578 2445 
Q 1406 2272 1406 2022 
Q 1406 1775 1578 1605 
Q 1750 1435 2000 1435 
Q 2250 1435 2422 1605 
Q 2594 1775 2594 2022 
Q 2594 2269 2420 2444 
Q 2247 2619 2000 2619 
z
M 2000 3022 
Q 2200 3022 2384 2945 
Q 2569 2869 2703 2725 
Q 2847 2585 2919 2406 
Q 2991 2228 2991 2022 
Q 2991 1610 2702 1324 
Q 2413 1038 1994 1038 
Q 1572 1038 1290 1319 
Q 1009 1600 1009 2022 
Q 1009 2441 1296 2731 
Q 1584 3022 2000 3022 
z
" transform="scale(0.015625)"/>
      <path id="DejaVuSans-39b" d="M 716 0 
L 50 0 
L 1831 4666 
L 2547 4666 
L 4325 0 
L 3669 0 
L 2188 4044 
L 716 0 
z
" transform="scale(0.015625)"/>
     </defs>
     <use xlink:href="#DejaVuSans-Oblique-6e" transform="translate(0 0.234375)"/>
     <use xlink:href="#DejaVuSans-Oblique-49" transform="translate(63.378906 -16.171875) scale(0.7)"/>
     <use xlink:href="#DejaVuSans-3d" transform="translate(106.240234 0.234375)"/>
     <use xlink:href="#DejaVuSans-31" transform="translate(209.511719 0.234375)"/>
     <use xlink:href="#DejaVuSans-2c" transform="translate(273.134766 0.234375)"/>
     <use xlink:href="#DejaVuSans-20" transform="translate(304.921875 0.234375)"/>
     <use xlink:href="#DejaVuSans-Oblique-6e" transform="translate(336.708984 0.234375)"/>
     <use xlink:href="#DejaVuSans-Oblique-49" transform="translate(400.087891 -16.171875) scale(0.7)"/>
     <use xlink:href="#DejaVuSans-Oblique-49" transform="translate(420.732422 -16.171875) scale(0.7)"/>
     <use xlink:href="#DejaVuSans-3d" transform="translate(463.59375 0.234375)"/>
     <use xlink:href="#DejaVuSans-32" transform="translate(566.865234 0.234375)"/>
     <use xlink:href="#DejaVuSans-2e" transform="translate(630.488281 0.234375)"/>
     <use xlink:href="#DejaVuSans-30" transform="translate(662.275391 0.234375)"/>
     <use xlink:href="#DejaVuSans-34" transform="translate(725.898438 0.234375)"/>
     <use xlink:href="#DejaVuSans-2c" transform="translate(789.521484 0.234375)"/>
     <use xlink:href="#DejaVuSans-20" transform="translate(821.308594 0.234375)"/>
     <use xlink:href="#DejaVuSans-Oblique-3b8" transform="translate(853.095703 0.234375)"/>
     <use xlink:href="#DejaVuSans-3d" transform="translate(933.759766 0.234375)"/>
     <use xlink:href="#DejaVuSans-31" transform="translate(1037.03125 0.234375)"/>
     <use xlink:href="#DejaVuSans-30" transform="translate(1100.654297 0.234375)"/>
     <use xlink:href="#DejaVuSans-2218" transform="translate(1178.87207 38.515625) scale(0.7)"/>
     <use xlink:href="#DejaVuSans-2c" transform="translate(1239.0625 0.234375)"/>
     <use xlink:href="#DejaVuSans-20" transform="translate(1270.849609 0.234375)"/>
     <use xlink:href="#DejaVuSans-39b" transform="translate(1302.636719 0.234375)"/>
     <use xlink:href="#DejaVuSans-3d" transform="translate(1390.527344 0.234375)"/>
     <use xlink:href="#DejaVuSans-Oblique-3bb" transform="translate(1493.798828 0.234375)"/>
     <use xlink:href="#DejaVuSans-30" transform="translate(1552.978516 -16.171875) scale(0.7)"/>
    </g>
   </g>
   <g id="legend_1">
    <g id="patch_7">
     <path d="M 243.12 93.52825 
L 407.72 93.52825 
Q 409.72 93.52825 409.72 91.52825 
L 409.72 48.472 
Q 409.72 46.472 407.72 46.472 
L 243.12 46.472 
Q 241.12 46.472 241.12 48.472 
L 241.12 91.52825 
Q 241.12 93.52825 243.12 93.52825 
z
" style="fill: #ffffff; opacity: 0.8; stroke: #cccccc; stroke-linejoin: miter"/>
    </g>
    <g id="line2d_16">
     <path d="M 245.12 54.570438 
L 255.12 54.570438 
L 265.12 54.570438 
" style="fill: none; stroke: #0000ff; stroke-width: 1.5; stroke-linecap: square"/>
     <g>
      <use xlink:href="#mbec5654a54" x="255.12" y="54.570438" style="fill: #0000ff; stroke: #0000ff"/>
     </g>
    </g>
    <g id="text_16">
     <!-- TE -->
     <g transform="translate(273.12 58.070438) scale(0.1 -0.1)">
      <defs>
       <path id="DejaVuSans-54" d="M -19 4666 
L 3928 4666 
L 3928 4134 
L 2272 4134 
L 2272 0 
L 1638 0 
L 1638 4134 
L -19 4134 
L -19 4666 
z
" transform="scale(0.015625)"/>
       <path id="DejaVuSans-45" d="M 628 4666 
L 3578 4666 
L 3578 4134 
L 1259 4134 
L 1259 2753 
L 3481 2753 
L 3481 2222 
L 1259 2222 
L 1259 531 
L 3634 531 
L 3634 0 
L 628 0 
L 628 4666 
z
" transform="scale(0.015625)"/>
      </defs>
      <use xlink:href="#DejaVuSans-54"/>
      <use xlink:href="#DejaVuSans-45" x="61.083984"/>
     </g>
    </g>
    <g id="line2d_17">
     <path d="M 245.12 69.248563 
L 255.12 69.248563 
L 265.12 69.248563 
" style="fill: none; stroke: #ff0000; stroke-width: 1.5; stroke-linecap: square"/>
     <g>
      <use xlink:href="#m7985207fab" x="255.12" y="69.248563" style="fill: #ff0000; stroke: #ff0000"/>
     </g>
    </g>
    <g id="text_17">
     <!-- TM -->
     <g transform="translate(273.12 72.748563) scale(0.1 -0.1)">
      <defs>
       <path id="DejaVuSans-4d" d="M 628 4666 
L 1569 4666 
L 2759 1491 
L 3956 4666 
L 4897 4666 
L 4897 0 
L 4281 0 
L 4281 4097 
L 3078 897 
L 2444 897 
L 1241 4097 
L 1241 0 
L 628 0 
L 628 4666 
z
" transform="scale(0.015625)"/>
      </defs>
      <use xlink:href="#DejaVuSans-54"/>
      <use xlink:href="#DejaVuSans-4d" x="61.083984"/>
     </g>
    </g>
    <g id="line2d_18">
     <path d="M 245.12 83.92825 
L 255.12 83.92825 
L 265.12 83.92825 
" style="fill: none; stroke: #000000; stroke-width: 1.5; stroke-linecap: square"/>
     <g>
      <use xlink:href="#m1ef46082bb" x="255.12" y="83.92825" style="stroke: #000000"/>
     </g>
    </g>
    <g id="text_18">
     <!-- conical  $(\phi = 30^\circ, \psi = 45^\circ)$ -->
     <g transform="translate(273.12 87.42825) scale(0.1 -0.1)">
      <defs>
       <path id="DejaVuSans-28" d="M 1984 4856 
Q 1566 4138 1362 3434 
Q 1159 2731 1159 2009 
Q 1159 1288 1364 580 
Q 1569 -128 1984 -844 
L 1484 -844 
Q 1016 -109 783 600 
Q 550 1309 550 2009 
Q 550 2706 781 3412 
Q 1013 4119 1484 4856 
L 1984 4856 
z
" transform="scale(0.015625)"/>
       <path id="DejaVuSans-Oblique-3d5" d="M 2991 4863 
L 2738 3572 
Q 3363 3572 3684 3094 
Q 4016 2606 3850 1747 
Q 3681 888 3159 400 
Q 2653 -78 2028 -78 
L 1784 -1331 
L 1213 -1331 
L 1456 -78 
Q 834 -78 509 400 
Q 178 888 347 1747 
Q 513 2606 1034 3094 
Q 1544 3572 2166 3572 
L 2419 4863 
L 2991 4863 
z
M 2128 434 
Q 2481 434 2784 756 
Q 3116 1116 3244 1747 
Q 3369 2372 3169 2738 
Q 2991 3059 2638 3059 
L 2128 434 
z
M 1556 434 
L 2066 3059 
Q 1716 3059 1413 2738 
Q 1072 2372 953 1747 
Q 834 1116 1028 756 
Q 1203 434 1556 434 
z
" transform="scale(0.015625)"/>
       <path id="DejaVuSans-33" d="M 2597 2516 
Q 3050 2419 3304 2112 
Q 3559 1806 3559 1356 
Q 3559 666 3084 287 
Q 2609 -91 1734 -91 
Q 1441 -91 1130 -33 
Q 819 25 488 141 
L 488 750 
Q 750 597 1062 519 
Q 1375 441 1716 441 
Q 2309 441 2620 675 
Q 2931 909 2931 1356 
Q 2931 1769 2642 2001 
Q 2353 2234 1838 2234 
L 1294 2234 
L 1294 2753 
L 1863 2753 
Q 2328 2753 2575 2939 
Q 2822 3125 2822 3475 
Q 2822 3834 2567 4026 
Q 2313 4219 1838 4219 
Q 1578 4219 1281 4162 
Q 984 4106 628 3988 
L 628 4550 
Q 988 4650 1302 4700 
Q 1616 4750 1894 4750 
Q 2613 4750 3031 4423 
Q 3450 4097 3450 3541 
Q 3450 3153 3228 2886 
Q 3006 2619 2597 2516 
z
" transform="scale(0.015625)"/>
       <path id="DejaVuSans-Oblique-3c8" d="M 1591 -78 
Q 891 38 616 341 
Q 278 713 425 1472 
L 819 3500 
L 1400 3500 
L 1009 1494 
Q 900 922 1119 684 
Q 1313 478 1691 434 
L 2284 3500 
L 2856 3500 
L 2263 438 
Q 2681 481 2928 688 
Q 3247 950 3353 1497 
L 3741 3500 
L 4322 3500 
L 3928 1475 
Q 3775 688 3300 344 
Q 2872 34 2163 -75 
L 1919 -1331 
L 1347 -1331 
L 1591 -78 
z
" transform="scale(0.015625)"/>
       <path id="DejaVuSans-29" d="M 513 4856 
L 1013 4856 
Q 1481 4119 1714 3412 
Q 1947 2706 1947 2009 
Q 1947 1309 1714 600 
Q 1481 -109 1013 -844 
L 513 -844 
Q 928 -128 1133 580 
Q 1338 1288 1338 2009 
Q 1338 2731 1133 3434 
Q 928 4138 513 4856 
z
" transform="scale(0.015625)"/>
      </defs>
      <use xlink:href="#DejaVuSans-63" transform="translate(0 0.015625)"/>
      <use xlink:href="#DejaVuSans-6f" transform="translate(54.980469 0.015625)"/>
      <use xlink:href="#DejaVuSans-6e" transform="translate(116.162109 0.015625)"/>
      <use xlink:href="#DejaVuSans-69" transform="translate(179.541016 0.015625)"/>
      <use xlink:href="#DejaVuSans-63" transform="translate(207.324219 0.015625)"/>
      <use xlink:href="#DejaVuSans-61" transform="translate(262.304688 0.015625)"/>
      <use xlink:href="#DejaVuSans-6c" transform="translate(323.583984 0.015625)"/>
      <use xlink:href="#DejaVuSans-20" transform="translate(351.367188 0.015625)"/>
      <use xlink:href="#DejaVuSans-20" transform="translate(383.154297 0.015625)"/>
      <use xlink:href="#DejaVuSans-28" transform="translate(414.941406 0.015625)"/>
      <use xlink:href="#DejaVuSans-Oblique-3d5" transform="translate(453.955078 0.015625)"/>
      <use xlink:href="#DejaVuSans-3d" transform="translate(539.404297 0.015625)"/>
      <use xlink:href="#DejaVuSans-33" transform="translate(642.675781 0.015625)"/>
      <use xlink:href="#DejaVuSans-30" transform="translate(706.298828 0.015625)"/>
      <use xlink:href="#DejaVuSans-2218" transform="translate(784.516602 38.296875) scale(0.7)"/>
      <use xlink:href="#DejaVuSans-2c" transform="translate(844.707031 0.015625)"/>
      <use xlink:href="#DejaVuSans-Oblique-3c8" transform="translate(895.976562 0.015625)"/>
      <use xlink:href="#DejaVuSans-3d" transform="translate(981.425781 0.015625)"/>
      <use xlink:href="#DejaVuSans-34" transform="translate(1084.697266 0.015625)"/>
      <use xlink:href="#DejaVuSans-35" transform="translate(1148.320312 0.015625)"/>
      <use xlink:href="#DejaVuSans-2218" transform="translate(1226.538086 38.296875) scale(0.7)"/>
      <use xlink:href="#DejaVuSans-29" transform="translate(1286.728516 0.015625)"/>
     </g>
    </g>
   </g>
  </g>
 </g>
 <defs>
  <clipPath id="p5a89589640">
   <rect x="57.6" y="41.472" width="357.12" height="266.112"/>
  </clipPath>
 </defs>
</svg>
